DakdamRef-Bold.ufo
<glyph name="hyphen" format="2">
  <advance width="1125"/>
  <unicode hex="002D"/>
  <unicode hex="00AD"/>
  <outline>
    <contour>
      <point x="260" y="520" type="line"/>
      <point x="260" y="740" type="line"/>
      <point x="940" y="740" type="line"/>
      <point x="940" y="520" type="line"/>
    </contour>
  </outline>
</glyph>
<glyph name="uni1785" format="2">
  <advance width="1500"/>
  <unicode hex="1785"/>
  <anchor x="1312" y="0" name="L"/>
  <anchor x="1312" y="1440" name="U"/>
  <outline>
    <contour>
      <point x="262" y="890" type="line"/>
      <point x="262" y="206" type="line" smooth="yes"/>
      <point x="262" y="94"/>
      <point x="562" y="0"/>
      <point x="787" y="0" type="curve" smooth="yes"/>
      <point x="1012" y="0"/>
      <point x="1312" y="94"/>
      <point x="1312" y="206" type="curve" smooth="yes"/>
      <point x="1312" y="473" type="line"/>
      <point x="1012" y="465" type="line"/>
      <point x="1012" y="225" type="line" smooth="yes"/>
      <point x="1012" y="169"/>
      <point x="881" y="131"/>
      <point x="787" y="131" type="curve" smooth="yes"/>
      <point x="694" y="131"/>
      <point x="562" y="169"/>
      <point x="562" y="225" type="curve" smooth="yes"/>
      <point x="562" y="950" type="line"/>
    </contour>
    <contour>
      <point x="1312" y="294" type="line"/>
      <point x="1312" y="782" type="line"/>
      <point x="1282" y="858"/>
      <point x="1174" y="890"/>
      <point x="1059" y="890" type="curve"/>
      <point x="893" y="859"/>
      <point x="785" y="729"/>
      <point x="785" y="600" type="curve" smooth="yes"/>
      <point x="785" y="476"/>
      <point x="882" y="358"/>
      <point x="1012" y="335" type="curve"/>
      <point x="1012" y="288" type="line"/>
    </contour>
    <contour>
      <point x="907" y="600" type="curve" smooth="yes"/>
      <point x="907" y="671"/>
      <point x="961" y="711"/>
      <point x="1012" y="733" type="curve"/>
      <point x="1012" y="432" type="line"/>
      <point x="946" y="451"/>
      <point x="907" y="527"/>
    </contour>
    <contour>
      <point x="754" y="1064" type="curve" smooth="yes"/>
      <point x="791" y="1064"/>
      <point x="822" y="1118"/>
      <point x="841" y="1142" type="curve" smooth="yes"/>
      <point x="865" y="1171"/>
      <point x="894" y="1206"/>
      <point x="925" y="1206" type="curve" smooth="yes"/>
      <point x="994" y="1206"/>
      <point x="1167" y="1063"/>
      <point x="1252" y="1063" type="curve" smooth="yes"/>
      <point x="1333" y="1063"/>
      <point x="1402" y="1189"/>
      <point x="1433" y="1275" type="curve"/>
      <point x="1410" y="1265"/>
      <point x="1386" y="1263"/>
      <point x="1363" y="1263" type="curve" smooth="yes"/>
      <point x="1298" y="1263"/>
      <point x="1053" y="1440"/>
      <point x="981" y="1440" type="curve" smooth="yes"/>
      <point x="957" y="1440"/>
      <point x="920" y="1419"/>
      <point x="886" y="1387" type="curve" smooth="yes"/>
      <point x="859" y="1361"/>
      <point x="829" y="1331"/>
      <point x="801" y="1298" type="curve"/>
      <point x="722" y="1323"/>
      <point x="527" y="1440"/>
      <point x="463" y="1440" type="curve" smooth="yes"/>
      <point x="299" y="1440"/>
      <point x="177" y="1235"/>
      <point x="104" y="1064" type="curve" smooth="yes"/>
      <point x="101" y="1057"/>
      <point x="100" y="1035"/>
      <point x="100" y="1029" type="curve" smooth="yes"/>
      <point x="100" y="958"/>
      <point x="189" y="902"/>
      <point x="262" y="890" type="curve"/>
      <point x="562" y="950" type="line"/>
      <point x="409" y="966"/>
      <point x="285" y="1027"/>
      <point x="285" y="1084" type="curve" smooth="yes"/>
      <point x="285" y="1105"/>
      <point x="294" y="1129"/>
      <point x="313" y="1153" type="curve" smooth="yes"/>
      <point x="338" y="1185"/>
      <point x="362" y="1206"/>
      <point x="397" y="1206" type="curve" smooth="yes"/>
      <point x="466" y="1206"/>
      <point x="669" y="1064"/>
    </contour>
  </outline>
</glyph>
<glyph name="uni1787" format="2">
  <advance width="1500"/>
  <unicode hex="1787"/>
  <anchor x="1312" y="0" name="L"/>
  <anchor x="1312" y="1665" name="U"/>
  <outline>
    <contour>
      <point x="262" y="890" type="line"/>
      <point x="262" y="82" type="line" smooth="yes"/>
      <point x="262" y="41"/>
      <point x="322" y="0"/>
      <point x="382" y="0" type="curve" smooth="yes"/>
      <point x="506" y="0" type="line" smooth="yes"/>
      <point x="554" y="0"/>
      <point x="629" y="46"/>
      <point x="671" y="82" type="curve" smooth="yes"/>
      <point x="710" y="116"/>
      <point x="767" y="159"/>
      <point x="787" y="159" type="curve" smooth="yes"/>
      <point x="807" y="159"/>
      <point x="864" y="116"/>
      <point x="903" y="82" type="curve" smooth="yes"/>
      <point x="945" y="46"/>
      <point x="1019" y="0"/>
      <point x="1068" y="0" type="curve" smooth="yes"/>
      <point x="1192" y="0" type="line" smooth="yes"/>
      <point x="1252" y="0"/>
      <point x="1312" y="41"/>
      <point x="1312" y="82" type="curve" smooth="yes"/>
      <point x="1312" y="859" type="line"/>
      <point x="1012" y="859" type="line"/>
      <point x="1012" y="274" type="line" smooth="yes"/>
      <point x="1012" y="232"/>
      <point x="1007" y="199"/>
      <point x="997" y="199" type="curve" smooth="yes"/>
      <point x="990" y="199"/>
      <point x="959" y="221"/>
      <point x="914" y="259" type="curve" smooth="yes"/>
      <point x="871" y="295"/>
      <point x="825" y="319"/>
      <point x="787" y="319" type="curve" smooth="yes"/>
      <point x="749" y="319"/>
      <point x="700" y="294"/>
      <point x="659" y="259" type="curve" smooth="yes"/>
      <point x="614" y="221"/>
      <point x="584" y="199"/>
      <point x="577" y="199" type="curve" smooth="yes"/>
      <point x="567" y="199"/>
      <point x="562" y="232"/>
      <point x="562" y="274" type="curve" smooth="yes"/>
      <point x="562" y="950" type="line"/>
    </contour>
    <contour>
      <point x="562" y="950" type="line"/>
      <point x="409" y="966"/>
      <point x="285" y="1027"/>
      <point x="285" y="1084" type="curve" smooth="yes"/>
      <point x="285" y="1105"/>
      <point x="294" y="1129"/>
      <point x="313" y="1153" type="curve" smooth="yes"/>
      <point x="338" y="1185"/>
      <point x="362" y="1199"/>
      <point x="397" y="1199" type="curve" smooth="yes"/>
      <point x="466" y="1199"/>
      <point x="839" y="1017"/>
      <point x="924" y="1017" type="curve"/>
      <point x="1127" y="1017"/>
      <point x="1312" y="1207"/>
      <point x="1312" y="1372" type="curve" smooth="yes"/>
      <point x="1312" y="1462"/>
      <point x="1297" y="1515"/>
      <point x="1226" y="1601" type="curve" smooth="yes"/>
      <point x="1159" y="1684"/>
      <point x="1057" y="1740"/>
      <point x="934" y="1740" type="curve" smooth="yes"/>
      <point x="810" y="1740"/>
      <point x="784" y="1680"/>
      <point x="784" y="1627" type="curve" smooth="yes"/>
      <point x="784" y="1575"/>
      <point x="847" y="1519"/>
      <point x="960" y="1501" type="curve" smooth="yes"/>
      <point x="1120" y="1475"/>
      <point x="1167" y="1444"/>
      <point x="1167" y="1365" type="curve" smooth="yes"/>
      <point x="1167" y="1290"/>
      <point x="1050" y="1256"/>
      <point x="975" y="1256" type="curve"/>
      <point x="896" y="1281"/>
      <point x="527" y="1440"/>
      <point x="463" y="1440" type="curve" smooth="yes"/>
      <point x="299" y="1440"/>
      <point x="177" y="1235"/>
      <point x="104" y="1064" type="curve" smooth="yes"/>
      <point x="101" y="1057"/>
      <point x="100" y="1035"/>
      <point x="100" y="1029" type="curve" smooth="yes"/>
      <point x="100" y="958"/>
      <point x="189" y="902"/>
      <point x="262" y="890" type="curve"/>
    </contour>
  </outline>
</glyph>
<glyph name="uni178D" format="2">
  <advance width="2250"/>
  <unicode hex="178D"/>
  <anchor x="2062" y="0" name="L"/>
  <anchor x="2062" y="1440" name="U"/>
  <outline>
    <contour>
      <point x="1762" y="851" type="line"/>
      <point x="1762" y="251" type="line" smooth="yes"/>
      <point x="1762" y="202"/>
      <point x="1755" y="169"/>
      <point x="1729" y="169" type="curve" smooth="yes"/>
      <point x="1624" y="169"/>
      <point x="1481" y="446"/>
      <point x="1312" y="469" type="curve"/>
      <point x="1312" y="1170" type="line" smooth="yes"/>
      <point x="1312" y="1290"/>
      <point x="1155" y="1440"/>
      <point x="1031" y="1440" type="curve" smooth="yes"/>
      <point x="979" y="1440"/>
      <point x="930" y="1406"/>
      <point x="877" y="1365" type="curve" smooth="yes"/>
      <point x="844" y="1339"/>
      <point x="810" y="1309"/>
      <point x="787" y="1286" type="curve"/>
      <point x="765" y="1309"/>
      <point x="731" y="1339"/>
      <point x="697" y="1365" type="curve" smooth="yes"/>
      <point x="645" y="1406"/>
      <point x="592" y="1440"/>
      <point x="544" y="1440" type="curve" smooth="yes"/>
      <point x="420" y="1440"/>
      <point x="262" y="1290"/>
      <point x="262" y="1170" type="curve" smooth="yes"/>
      <point x="262" y="462" type="line"/>
      <point x="562" y="494" type="line"/>
      <point x="562" y="1125" type="line" smooth="yes"/>
      <point x="562" y="1159"/>
      <point x="570" y="1221"/>
      <point x="589" y="1221" type="curve" smooth="yes"/>
      <point x="622" y="1221"/>
      <point x="765" y="1092"/>
      <point x="787" y="1066" type="curve"/>
      <point x="809" y="1092"/>
      <point x="951" y="1221"/>
      <point x="985" y="1221" type="curve" smooth="yes"/>
      <point x="1004" y="1221"/>
      <point x="1012" y="1159"/>
      <point x="1012" y="1125" type="curve" smooth="yes"/>
      <point x="1012" y="469" type="line"/>
      <point x="904" y="454"/>
      <point x="825" y="356"/>
      <point x="825" y="236" type="curve" smooth="yes"/>
      <point x="825" y="146"/>
      <point x="889" y="37"/>
      <point x="1072" y="0" type="curve"/>
      <point x="1159" y="0"/>
      <point x="1282" y="22"/>
      <point x="1312" y="109" type="curve"/>
      <point x="1312" y="300" type="line"/>
      <point x="1429" y="281"/>
      <point x="1541" y="0"/>
      <point x="1755" y="0" type="curve" smooth="yes"/>
      <point x="1969" y="0"/>
      <point x="2062" y="116"/>
      <point x="2062" y="217" type="curve" smooth="yes"/>
      <point x="2062" y="835" type="line"/>
    </contour>
    <contour>
      <point x="936" y="244" type="curve" smooth="yes"/>
      <point x="936" y="289"/>
      <point x="967" y="335"/>
      <point x="1012" y="340" type="curve"/>
      <point x="1012" y="149" type="line"/>
      <point x="971" y="160"/>
      <point x="936" y="199"/>
    </contour>
    <contour>
      <point x="2062" y="745" type="line"/>
      <point x="2062" y="910" type="line" smooth="yes"/>
      <point x="2062" y="975"/>
      <point x="1841" y="1084"/>
      <point x="1721" y="1124" type="curve" smooth="yes"/>
      <point x="1719" y="1125"/>
      <point x="1718" y="1126"/>
      <point x="1718" y="1128" type="curve"/>
      <point x="1721" y="1143"/>
      <point x="1728" y="1165"/>
      <point x="1746" y="1177" type="curve" smooth="yes"/>
      <point x="1754" y="1183"/>
      <point x="1764" y="1186"/>
      <point x="1774" y="1186" type="curve" smooth="yes"/>
      <point x="1833" y="1186"/>
      <point x="1907" y="1093"/>
      <point x="2002" y="1093" type="curve" smooth="yes"/>
      <point x="2083" y="1093"/>
      <point x="2152" y="1219"/>
      <point x="2183" y="1305" type="curve"/>
      <point x="2160" y="1295"/>
      <point x="2136" y="1293"/>
      <point x="2113" y="1293" type="curve" smooth="yes"/>
      <point x="2058" y="1293"/>
      <point x="1862" y="1440"/>
      <point x="1790" y="1440" type="curve" smooth="yes"/>
      <point x="1706" y="1440"/>
      <point x="1603" y="1165"/>
      <point x="1578" y="1061" type="curve"/>
      <point x="1578" y="1055"/>
      <point x="1580" y="1050"/>
      <point x="1585" y="1049" type="curve" smooth="yes"/>
      <point x="1690" y="1037"/>
      <point x="1762" y="963"/>
      <point x="1762" y="919" type="curve" smooth="yes"/>
      <point x="1762" y="745" type="line"/>
    </contour>
    <contour>
      <point x="262" y="736" type="line"/>
      <point x="262" y="108" type="line"/>
      <point x="292" y="32"/>
      <point x="400" y="0"/>
      <point x="515" y="0" type="curve"/>
      <point x="681" y="31"/>
      <point x="789" y="161"/>
      <point x="789" y="290" type="curve" smooth="yes"/>
      <point x="789" y="414"/>
      <point x="692" y="532"/>
      <point x="562" y="555" type="curve"/>
      <point x="562" y="742" type="line"/>
    </contour>
    <contour>
      <point x="667" y="290" type="curve" smooth="yes"/>
      <point x="667" y="219"/>
      <point x="613" y="179"/>
      <point x="562" y="157" type="curve"/>
      <point x="562" y="458" type="line"/>
      <point x="628" y="439"/>
      <point x="667" y="363"/>
    </contour>
  </outline>
</glyph>
<glyph name="uni17E4" format="2">
  <advance width="1350"/>
  <unicode hex="17E4"/>
  <outline>
    <contour>
      <point x="1033" y="371" type="curve" smooth="yes"/>
      <point x="1130" y="371"/>
      <point x="1209" y="412"/>
      <point x="1209" y="521" type="curve"/>
      <point x="1209" y="626"/>
      <point x="1108" y="727"/>
      <point x="954" y="727" type="curve"/>
      <point x="744" y="727"/>
      <point x="628" y="600"/>
      <point x="628" y="442" type="curve"/>
      <point x="628" y="356"/>
      <point x="688" y="266"/>
      <point x="782" y="176" type="curve"/>
      <point x="752" y="176"/>
      <point x="703" y="180"/>
      <point x="684" y="180" type="curve"/>
      <point x="643" y="180"/>
      <point x="580" y="161"/>
      <point x="538" y="161" type="curve" smooth="yes"/>
      <point x="470" y="161"/>
      <point x="440" y="296"/>
      <point x="440" y="420" type="curve" smooth="yes"/>
      <point x="440" y="634"/>
      <point x="684" y="892"/>
      <point x="824" y="1011" type="curve"/>
      <point x="947" y="1117"/>
      <point x="1108" y="1282"/>
      <point x="1108" y="1451" type="curve" smooth="yes"/>
      <point x="1108" y="1556"/>
      <point x="1048" y="1680"/>
      <point x="917" y="1731" type="curve" smooth="yes"/>
      <point x="883" y="1744"/>
      <point x="838" y="1759"/>
      <point x="782" y="1759" type="curve"/>
      <point x="748" y="1759"/>
      <point x="725" y="1755"/>
      <point x="703" y="1747" type="curve"/>
      <point x="785" y="1710"/>
      <point x="812" y="1586"/>
      <point x="812" y="1511" type="curve"/>
      <point x="812" y="1379"/>
      <point x="628" y="1219"/>
      <point x="507" y="1111" type="curve"/>
      <point x="339" y="960"/>
      <point x="140" y="709"/>
      <point x="140" y="491" type="curve" smooth="yes"/>
      <point x="140" y="135"/>
      <point x="305" y="0"/>
      <point x="455" y="0" type="curve"/>
      <point x="497" y="0"/>
      <point x="575" y="6"/>
      <point x="617" y="15" type="curve" smooth="yes"/>
      <point x="654" y="23"/>
      <point x="695" y="30"/>
      <point x="718" y="30" type="curve"/>
      <point x="759" y="30"/>
      <point x="808" y="23"/>
      <point x="860" y="14" type="curve" smooth="yes"/>
      <point x="909" y="6"/>
      <point x="958" y="0"/>
      <point x="1010" y="0" type="curve"/>
      <point x="1115" y="0"/>
      <point x="1142" y="41"/>
      <point x="1142" y="60" type="curve"/>
      <point x="1142" y="112"/>
      <point x="1082" y="176"/>
      <point x="1009" y="243" type="curve"/>
      <point x="962" y="285"/>
      <point x="913" y="330"/>
      <point x="902" y="401" type="curve"/>
      <point x="935" y="382"/>
      <point x="980" y="371"/>
    </contour>
  </outline>
</glyph>
<glyph name="uni17E8" format="2">
  <advance width="1350"/>
  <unicode hex="17E8"/>
  <outline>
    <contour>
      <point x="122" y="532" type="curve" smooth="yes"/>
      <point x="122" y="135"/>
      <point x="291" y="0"/>
      <point x="441" y="0" type="curve"/>
      <point x="546" y="0"/>
      <point x="647" y="45"/>
      <point x="685" y="82" type="curve"/>
      <point x="722" y="45"/>
      <point x="824" y="0"/>
      <point x="929" y="0" type="curve"/>
      <point x="1109" y="0"/>
      <point x="1210" y="206"/>
      <point x="1210" y="405" type="curve"/>
      <point x="1210" y="581"/>
      <point x="1101" y="735"/>
      <point x="887" y="735" type="curve"/>
      <point x="734" y="735"/>
      <point x="621" y="641"/>
      <point x="621" y="536" type="curve"/>
      <point x="621" y="476"/>
      <point x="659" y="371"/>
      <point x="809" y="371" type="curve"/>
      <point x="857" y="371"/>
      <point x="895" y="379"/>
      <point x="929" y="397" type="curve"/>
      <point x="929" y="322"/>
      <point x="899" y="176"/>
      <point x="835" y="176" type="curve"/>
      <point x="782" y="176"/>
      <point x="741" y="195"/>
      <point x="685" y="262" type="curve"/>
      <point x="629" y="195"/>
      <point x="587" y="172"/>
      <point x="535" y="172" type="curve"/>
      <point x="456" y="172"/>
      <point x="422" y="356"/>
      <point x="422" y="514" type="curve"/>
      <point x="422" y="877"/>
      <point x="501" y="971"/>
      <point x="557" y="971" type="curve"/>
      <point x="696" y="971"/>
      <point x="749" y="904"/>
      <point x="880" y="904" type="curve"/>
      <point x="1064" y="904"/>
      <point x="1180" y="1054"/>
      <point x="1180" y="1237" type="curve" smooth="yes"/>
      <point x="1180" y="1324"/>
      <point x="1120" y="1410"/>
      <point x="1120" y="1507" type="curve" smooth="yes"/>
      <point x="1120" y="1590"/>
      <point x="1157" y="1672"/>
      <point x="1236" y="1672" type="curve"/>
      <point x="1191" y="1729"/>
      <point x="1150" y="1766"/>
      <point x="1037" y="1766" type="curve"/>
      <point x="910" y="1766"/>
      <point x="827" y="1624"/>
      <point x="827" y="1489" type="curve"/>
      <point x="827" y="1425"/>
      <point x="880" y="1346"/>
      <point x="880" y="1264" type="curve" smooth="yes"/>
      <point x="880" y="1185"/>
      <point x="872" y="1121"/>
      <point x="812" y="1121" type="curve" smooth="yes"/>
      <point x="700" y="1121"/>
      <point x="666" y="1177"/>
      <point x="512" y="1177" type="curve" smooth="yes"/>
      <point x="381" y="1177"/>
      <point x="122" y="1035"/>
    </contour>
  </outline>
</glyph>
<glyph name="uni19E6" format="2">
  <advance width="1390"/>
  <unicode hex="19E6"/>
  <guideline x="787" y="0" angle="90"/>
  <outline>
    <contour>
      <point x="1242" y="1312" type="curve" smooth="yes"/>
      <point x="1242" y="1766"/>
      <point x="999" y="1987"/>
      <point x="751" y="1987" type="curve"/>
      <point x="695" y="1987"/>
      <point x="658" y="1983"/>
      <point x="627" y="1976" type="curve"/>
      <point x="658" y="2036"/>
      <point x="676" y="2107"/>
      <point x="676" y="2163" type="curve"/>
      <point x="676" y="2272"/>
      <point x="594" y="2317"/>
      <point x="474" y="2317" type="curve" smooth="yes"/>
      <point x="266" y="2317"/>
      <point x="162" y="2159"/>
      <point x="117" y="2084" type="curve"/>
      <point x="174" y="2127"/>
      <point x="236" y="2159"/>
      <point x="320" y="2159" type="curve"/>
      <point x="350" y="2159"/>
      <point x="399" y="2122"/>
      <point x="399" y="2036" type="curve" smooth="yes"/>
      <point x="399" y="1911"/>
      <point x="372" y="1800"/>
      <point x="316" y="1713" type="curve"/>
      <point x="375" y="1766"/>
      <point x="481" y="1829"/>
      <point x="699" y="1829" type="curve"/>
      <point x="860" y="1829"/>
      <point x="942" y="1533"/>
      <point x="942" y="1312" type="curve" smooth="yes"/>
      <point x="942" y="1020"/>
      <point x="815" y="787"/>
      <point x="680" y="787" type="curve" smooth="yes"/>
      <point x="537" y="787"/>
      <point x="492" y="963" name="hr01"/>
      <point x="492" y="1083" type="curve" smooth="yes"/>
      <point x="492" y="1132" type="line"/>
      <point x="527" y="1101"/>
      <point x="582" y="1083"/>
      <point x="650" y="1083" type="curve"/>
      <point x="762" y="1083"/>
      <point x="837" y="1132"/>
      <point x="837" y="1241" type="curve" smooth="yes"/>
      <point x="837" y="1364"/>
      <point x="696" y="1432"/>
      <point x="564" y="1432" type="curve" smooth="yes"/>
      <point x="304" y="1432"/>
      <point x="192" y="1207"/>
      <point x="192" y="1079" type="curve" smooth="yes"/>
      <point x="192" y="802"/>
      <point x="411" y="637"/>
      <point x="680" y="637" type="curve" smooth="yes"/>
      <point x="969" y="637"/>
      <point x="1242" y="884"/>
    </contour>
    <contour>
      <point x="786" y="-1200" type="line"/>
      <point x="1161" y="-1200" type="line" name="hr02"/>
      <point x="1161" y="240" type="line"/>
      <point x="786" y="240" type="line"/>
      <point x="786" y="155"/>
      <point x="700" y="-71"/>
      <point x="599" y="-71" type="curve"/>
      <point x="547" y="-71"/>
      <point x="527" y="-26"/>
      <point x="527" y="0" type="curve"/>
      <point x="602" y="21"/>
      <point x="670" y="71"/>
      <point x="670" y="150" type="curve"/>
      <point x="670" y="225"/>
      <point x="603" y="296"/>
      <point x="467" y="296" type="curve" smooth="yes"/>
      <point x="336" y="296"/>
      <point x="205" y="214"/>
      <point x="205" y="37" type="curve" smooth="yes"/>
      <point x="205" y="-95"/>
      <point x="339" y="-229"/>
      <point x="539" y="-229" type="curve" smooth="yes"/>
      <point x="626" y="-229"/>
      <point x="718" y="-191"/>
      <point x="786" y="-131" type="curve"/>
    </contour>
  </outline>
</glyph>
<glyph name="uni19E7" format="2">
  <advance width="1840"/>
  <unicode hex="19E7"/>
  <outline>
    <contour>
      <point x="490" y="1784" type="line"/>
      <point x="490" y="1822"/>
      <point x="490" y="1886"/>
      <point x="509" y="1886" type="curve" smooth="yes"/>
      <point x="531" y="1886"/>
      <point x="677" y="1728"/>
      <point x="715" y="1728" type="curve" smooth="yes"/>
      <point x="752" y="1728"/>
      <point x="899" y="1886"/>
      <point x="921" y="1886" type="curve" smooth="yes"/>
      <point x="940" y="1886"/>
      <point x="940" y="1819"/>
      <point x="940" y="1784" type="curve" smooth="yes"/>
      <point x="940" y="836" type="line" smooth="yes"/>
      <point x="940" y="732"/>
      <point x="1105" y="637"/>
      <point x="1296" y="637" type="curve" smooth="yes"/>
      <point x="1487" y="637"/>
      <point x="1652" y="732"/>
      <point x="1652" y="836" type="curve" smooth="yes"/>
      <point x="1652" y="2043" type="line" smooth="yes"/>
      <point x="1652" y="2291"/>
      <point x="1514" y="2407"/>
      <point x="1292" y="2407" type="curve" smooth="yes"/>
      <point x="1183" y="2407"/>
      <point x="1106" y="2321"/>
      <point x="1090" y="2257" type="curve"/>
      <point x="1127" y="2280"/>
      <point x="1169" y="2302"/>
      <point x="1221" y="2302" type="curve"/>
      <point x="1311" y="2302"/>
      <point x="1352" y="2187"/>
      <point x="1352" y="2024" type="curve" smooth="yes"/>
      <point x="1352" y="854" type="line" smooth="yes"/>
      <point x="1352" y="806"/>
      <point x="1308" y="772"/>
      <point x="1296" y="772" type="curve" smooth="yes"/>
      <point x="1280" y="772"/>
      <point x="1240" y="806"/>
      <point x="1240" y="854" type="curve" smooth="yes"/>
      <point x="1240" y="1822" type="line" smooth="yes"/>
      <point x="1240" y="1882"/>
      <point x="1112" y="2077"/>
      <point x="944" y="2077" type="curve" smooth="yes"/>
      <point x="869" y="2077"/>
      <point x="745" y="1927"/>
      <point x="715" y="1927" type="curve" smooth="yes"/>
      <point x="685" y="1927"/>
      <point x="561" y="2077"/>
      <point x="486" y="2077" type="curve" smooth="yes"/>
      <point x="317" y="2077"/>
      <point x="190" y="1882"/>
      <point x="190" y="1822" type="curve" smooth="yes"/>
      <point x="190" y="743" type="line"/>
      <point x="219" y="656"/>
      <point x="345" y="634"/>
      <point x="430" y="634" type="curve"/>
      <point x="629" y="671"/>
      <point x="715" y="836"/>
      <point x="715" y="926" type="curve"/>
      <point x="715" y="1036"/>
      <point x="598" y="1088"/>
      <point x="490" y="1104" type="curve"/>
    </contour>
    <contour>
      <point x="996" y="-1200" type="line" name="hr01"/>
      <point x="1371" y="-1200" type="line"/>
      <point x="1371" y="240" type="line"/>
      <point x="996" y="240" type="line"/>
      <point x="996" y="155"/>
      <point x="910" y="-71"/>
      <point x="809" y="-71" type="curve"/>
      <point x="757" y="-71"/>
      <point x="737" y="-26"/>
      <point x="737" y="0" type="curve"/>
      <point x="812" y="21"/>
      <point x="880" y="71"/>
      <point x="880" y="150" type="curve"/>
      <point x="880" y="225"/>
      <point x="813" y="296"/>
      <point x="677" y="296" type="curve" smooth="yes"/>
      <point x="546" y="296"/>
      <point x="415" y="214"/>
      <point x="415" y="37" type="curve" smooth="yes"/>
      <point x="415" y="-95"/>
      <point x="549" y="-229"/>
      <point x="749" y="-229" type="curve" smooth="yes"/>
      <point x="836" y="-229"/>
      <point x="928" y="-191"/>
      <point x="996" y="-131" type="curve"/>
    </contour>
    <contour>
      <point x="610" y="926" type="curve" smooth="yes"/>
      <point x="610" y="875"/>
      <point x="542" y="800"/>
      <point x="490" y="784" type="curve"/>
      <point x="490" y="1018" type="line"/>
      <point x="538" y="1015"/>
      <point x="610" y="982"/>
    </contour>
  </outline>
</glyph>
<glyph name="uni19EA" format="2">
  <advance width="2660"/>
  <unicode hex="19EA"/>
  <guideline x="1312" y="0" angle="90"/>
  <outline>
    <contour>
      <point x="1462" y="1357" type="curve" smooth="yes"/>
      <point x="1462" y="944"/>
      <point x="1642" y="637"/>
      <point x="1987" y="637" type="curve"/>
      <point x="2332" y="637"/>
      <point x="2512" y="948"/>
      <point x="2512" y="1361" type="curve" smooth="yes"/>
      <point x="2512" y="1773"/>
      <point x="2332" y="2077"/>
      <point x="1987" y="2077" type="curve" smooth="yes"/>
      <point x="1642" y="2077"/>
      <point x="1462" y="1769"/>
    </contour>
    <contour>
      <point x="552" y="1278" type="curve" smooth="yes"/>
      <point x="732" y="1278"/>
      <point x="870" y="1417"/>
      <point x="870" y="1529" type="curve"/>
      <point x="870" y="1664"/>
      <point x="777" y="1721"/>
      <point x="676" y="1721" type="curve" smooth="yes"/>
      <point x="556" y="1721"/>
      <point x="520" y="1642"/>
      <point x="520" y="1589" type="curve" smooth="yes"/>
      <point x="520" y="1522"/>
      <point x="549" y="1496"/>
      <point x="605" y="1477" type="curve"/>
      <point x="605" y="1446"/>
      <point x="579" y="1428"/>
      <point x="556" y="1428" type="curve"/>
      <point x="489" y="1428"/>
      <point x="432" y="1522"/>
      <point x="432" y="1642" type="curve" smooth="yes"/>
      <point x="432" y="1845"/>
      <point x="544" y="1927"/>
      <point x="676" y="1927" type="curve" smooth="yes"/>
      <point x="830" y="1927"/>
      <point x="957" y="1813"/>
      <point x="957" y="1417" type="curve" smooth="yes"/>
      <point x="957" y="1028"/>
      <point x="679" y="731"/>
      <point x="387" y="731" type="curve" smooth="yes"/>
      <point x="364" y="731" type="line" smooth="yes"/>
      <point x="336" y="731"/>
      <point x="285" y="734"/>
      <point x="249" y="746" type="curve"/>
      <point x="300" y="682"/>
      <point x="437" y="637"/>
      <point x="541" y="637" type="curve"/>
      <point x="845" y="637"/>
      <point x="1257" y="933"/>
      <point x="1257" y="1398" type="curve" smooth="yes"/>
      <point x="1257" y="1886"/>
      <point x="1009" y="2077"/>
      <point x="676" y="2077" type="curve" smooth="yes"/>
      <point x="339" y="2077"/>
      <point x="132" y="1882"/>
      <point x="132" y="1661" type="curve" smooth="yes"/>
      <point x="132" y="1432"/>
      <point x="291" y="1278"/>
    </contour>
    <contour>
      <point x="1356" y="-1200" type="line"/>
      <point x="1731" y="-1200" type="line"/>
      <point x="1731" y="240" type="line" name="hr01"/>
      <point x="1356" y="240" type="line"/>
      <point x="1356" y="155"/>
      <point x="1270" y="-71"/>
      <point x="1169" y="-71" type="curve"/>
      <point x="1117" y="-71"/>
      <point x="1097" y="-26"/>
      <point x="1097" y="0" type="curve"/>
      <point x="1172" y="21"/>
      <point x="1240" y="71"/>
      <point x="1240" y="150" type="curve"/>
      <point x="1240" y="225"/>
      <point x="1173" y="296"/>
      <point x="1037" y="296" type="curve" smooth="yes"/>
      <point x="906" y="296"/>
      <point x="775" y="214"/>
      <point x="775" y="37" type="curve" smooth="yes"/>
      <point x="775" y="-95"/>
      <point x="909" y="-229"/>
      <point x="1109" y="-229" type="curve" smooth="yes"/>
      <point x="1196" y="-229"/>
      <point x="1288" y="-191"/>
      <point x="1356" y="-131" type="curve"/>
    </contour>
    <contour>
      <point x="1762" y="1357" type="curve" smooth="yes"/>
      <point x="1762" y="1631"/>
      <point x="1830" y="1927" name="hr02"/>
      <point x="1987" y="1927" type="curve"/>
      <point x="2146" y="1927"/>
      <point x="2212" y="1634"/>
      <point x="2212" y="1361" type="curve" smooth="yes"/>
      <point x="2212" y="1087"/>
      <point x="2146" y="787"/>
      <point x="1987" y="787" type="curve" smooth="yes"/>
      <point x="1830" y="787"/>
      <point x="1762" y="1083"/>
    </contour>
  </outline>
</glyph>
<glyph name="uni19EE" format="2">
  <advance width="2660"/>
  <unicode hex="19EE"/>
  <guideline x="1275"/>
  <outline>
    <contour>
      <point x="2353" y="1008" type="curve" smooth="yes"/>
      <point x="2449" y="1008"/>
      <point x="2529" y="1049"/>
      <point x="2529" y="1158" type="curve"/>
      <point x="2529" y="1263"/>
      <point x="2429" y="1364"/>
      <point x="2274" y="1364" type="curve" smooth="yes"/>
      <point x="2064" y="1364"/>
      <point x="1948" y="1236"/>
      <point x="1948" y="1079" type="curve" smooth="yes"/>
      <point x="1948" y="992"/>
      <point x="2007" y="904"/>
      <point x="2102" y="813" type="curve"/>
      <point x="2073" y="813"/>
      <point x="2022" y="817"/>
      <point x="2004" y="817" type="curve"/>
      <point x="1963" y="817"/>
      <point x="1900" y="798"/>
      <point x="1858" y="798" type="curve" smooth="yes"/>
      <point x="1789" y="798"/>
      <point x="1760" y="933"/>
      <point x="1760" y="1057" type="curve" smooth="yes"/>
      <point x="1760" y="1272"/>
      <point x="2004" y="1528"/>
      <point x="2144" y="1648" type="curve" smooth="yes"/>
      <point x="2267" y="1755"/>
      <point x="2428" y="1919"/>
      <point x="2428" y="2088" type="curve" smooth="yes"/>
      <point x="2428" y="2192"/>
      <point x="2368" y="2317"/>
      <point x="2237" y="2368" type="curve" smooth="yes"/>
      <point x="2202" y="2381"/>
      <point x="2158" y="2396"/>
      <point x="2102" y="2396" type="curve" smooth="yes"/>
      <point x="2067" y="2396"/>
      <point x="2046" y="2392"/>
      <point x="2023" y="2384" type="curve"/>
      <point x="2105" y="2347"/>
      <point x="2132" y="2222"/>
      <point x="2132" y="2148" type="curve"/>
      <point x="2132" y="2015"/>
      <point x="1948" y="1857"/>
      <point x="1827" y="1748" type="curve" smooth="yes"/>
      <point x="1659" y="1596"/>
      <point x="1460" y="1346"/>
      <point x="1460" y="1128" type="curve" smooth="yes"/>
      <point x="1460" y="772"/>
      <point x="1625" y="637"/>
      <point x="1775" y="637" type="curve" smooth="yes"/>
      <point x="1817" y="637"/>
      <point x="1894" y="644"/>
      <point x="1937" y="652" type="curve"/>
      <point x="1974" y="660"/>
      <point x="2015" y="667"/>
      <point x="2038" y="667" type="curve"/>
      <point x="2079" y="667"/>
      <point x="2128" y="660"/>
      <point x="2180" y="651" type="curve" smooth="yes"/>
      <point x="2229" y="643"/>
      <point x="2278" y="637"/>
      <point x="2330" y="637" type="curve" smooth="yes"/>
      <point x="2434" y="637"/>
      <point x="2462" y="677"/>
      <point x="2462" y="697" type="curve" smooth="yes"/>
      <point x="2462" y="749"/>
      <point x="2402" y="813"/>
      <point x="2329" y="880" type="curve" smooth="yes"/>
      <point x="2282" y="922"/>
      <point x="2233" y="967"/>
      <point x="2222" y="1038" type="curve"/>
      <point x="2255" y="1019"/>
      <point x="2300" y="1008"/>
    </contour>
    <contour>
      <point x="552" y="1278" type="curve" smooth="yes"/>
      <point x="732" y="1278"/>
      <point x="870" y="1417"/>
      <point x="870" y="1529" type="curve"/>
      <point x="870" y="1664"/>
      <point x="777" y="1721"/>
      <point x="676" y="1721" type="curve" smooth="yes"/>
      <point x="556" y="1721"/>
      <point x="520" y="1642"/>
      <point x="520" y="1589" type="curve" smooth="yes"/>
      <point x="520" y="1522"/>
      <point x="549" y="1496"/>
      <point x="605" y="1477" type="curve"/>
      <point x="605" y="1446"/>
      <point x="579" y="1428"/>
      <point x="556" y="1428" type="curve"/>
      <point x="489" y="1428"/>
      <point x="432" y="1522"/>
      <point x="432" y="1642" type="curve" smooth="yes"/>
      <point x="432" y="1845"/>
      <point x="544" y="1927"/>
      <point x="676" y="1927" type="curve" smooth="yes"/>
      <point x="830" y="1927"/>
      <point x="957" y="1813"/>
      <point x="957" y="1417" type="curve" smooth="yes"/>
      <point x="957" y="1028"/>
      <point x="679" y="731"/>
      <point x="387" y="731" type="curve" smooth="yes" name="hr01"/>
      <point x="364" y="731" type="line" smooth="yes"/>
      <point x="336" y="731"/>
      <point x="285" y="734"/>
      <point x="249" y="746" type="curve"/>
      <point x="300" y="682"/>
      <point x="437" y="637"/>
      <point x="541" y="637" type="curve"/>
      <point x="845" y="637"/>
      <point x="1257" y="933"/>
      <point x="1257" y="1398" type="curve" smooth="yes"/>
      <point x="1257" y="1886"/>
      <point x="1009" y="2077"/>
      <point x="676" y="2077" type="curve" smooth="yes"/>
      <point x="339" y="2077"/>
      <point x="132" y="1882"/>
      <point x="132" y="1661" type="curve" smooth="yes"/>
      <point x="132" y="1432"/>
      <point x="291" y="1278"/>
    </contour>
    <contour>
      <point x="1356" y="-1200" type="line"/>
      <point x="1731" y="-1200" type="line"/>
      <point x="1731" y="240" type="line"/>
      <point x="1356" y="240" type="line"/>
      <point x="1356" y="155"/>
      <point x="1270" y="-71"/>
      <point x="1169" y="-71" type="curve"/>
      <point x="1117" y="-71"/>
      <point x="1097" y="-26"/>
      <point x="1097" y="0" type="curve"/>
      <point x="1172" y="21"/>
      <point x="1240" y="71"/>
      <point x="1240" y="150" type="curve"/>
      <point x="1240" y="225"/>
      <point x="1173" y="296"/>
      <point x="1037" y="296" type="curve" smooth="yes"/>
      <point x="906" y="296"/>
      <point x="775" y="214"/>
      <point x="775" y="37" type="curve" smooth="yes"/>
      <point x="775" y="-95"/>
      <point x="909" y="-229"/>
      <point x="1109" y="-229" type="curve" smooth="yes"/>
      <point x="1196" y="-229"/>
      <point x="1288" y="-191"/>
      <point x="1356" y="-131" type="curve"/>
    </contour>
  </outline>
</glyph>
<glyph name="uni19F1" format="2">
  <advance width="1390"/>
  <unicode hex="19F1"/>
  <outline>
    <contour>
      <point x="552" y="-559" type="curve" smooth="yes"/>
      <point x="732" y="-559"/>
      <point x="870" y="-420"/>
      <point x="870" y="-308" type="curve"/>
      <point x="870" y="-173"/>
      <point x="777" y="-116"/>
      <point x="676" y="-116" type="curve" smooth="yes"/>
      <point x="556" y="-116"/>
      <point x="520" y="-195"/>
      <point x="520" y="-248" type="curve" smooth="yes"/>
      <point x="520" y="-315"/>
      <point x="549" y="-341"/>
      <point x="605" y="-360" type="curve"/>
      <point x="605" y="-391"/>
      <point x="579" y="-409"/>
      <point x="556" y="-409" type="curve"/>
      <point x="489" y="-409"/>
      <point x="432" y="-315"/>
      <point x="432" y="-195" type="curve" smooth="yes"/>
      <point x="432" y="8"/>
      <point x="544" y="90"/>
      <point x="676" y="90" type="curve" smooth="yes"/>
      <point x="830" y="90"/>
      <point x="957" y="-24"/>
      <point x="957" y="-420" type="curve" smooth="yes"/>
      <point x="957" y="-809"/>
      <point x="679" y="-1106"/>
      <point x="387" y="-1106" type="curve" smooth="yes"/>
      <point x="364" y="-1106" type="line" smooth="yes"/>
      <point x="336" y="-1106"/>
      <point x="285" y="-1103"/>
      <point x="249" y="-1091" type="curve"/>
      <point x="300" y="-1155"/>
      <point x="437" y="-1200"/>
      <point x="541" y="-1200" type="curve"/>
      <point x="845" y="-1200"/>
      <point x="1257" y="-904"/>
      <point x="1257" y="-439" type="curve" smooth="yes"/>
      <point x="1257" y="49"/>
      <point x="1009" y="240"/>
      <point x="676" y="240" type="curve" smooth="yes"/>
      <point x="339" y="240"/>
      <point x="132" y="45"/>
      <point x="132" y="-176" type="curve" smooth="yes"/>
      <point x="132" y="-405"/>
      <point x="291" y="-559"/>
    </contour>
    <contour>
      <point x="736" y="637" type="line"/>
      <point x="1111" y="637" type="line" name="hr01"/>
      <point x="1111" y="2077" type="line"/>
      <point x="736" y="2077" type="line"/>
      <point x="736" y="1992"/>
      <point x="650" y="1766"/>
      <point x="549" y="1766" type="curve"/>
      <point x="497" y="1766"/>
      <point x="477" y="1811"/>
      <point x="477" y="1837" type="curve"/>
      <point x="552" y="1858"/>
      <point x="620" y="1908"/>
      <point x="620" y="1987" type="curve"/>
      <point x="620" y="2062"/>
      <point x="553" y="2133"/>
      <point x="417" y="2133" type="curve" smooth="yes"/>
      <point x="286" y="2133"/>
      <point x="155" y="2051"/>
      <point x="155" y="1874" type="curve" smooth="yes"/>
      <point x="155" y="1742"/>
      <point x="289" y="1608"/>
      <point x="489" y="1608" type="curve" smooth="yes"/>
      <point x="576" y="1608"/>
      <point x="668" y="1646"/>
      <point x="736" y="1706" type="curve"/>
    </contour>
  </outline>
</glyph>
<glyph name="uni19F2" format="2">
  <advance width="1840"/>
  <unicode hex="19F2"/>
  <guideline x="937"/>
  <outline>
    <contour>
      <point x="607" y="-624" type="line"/>
      <point x="636" y="-711"/>
      <point x="762" y="-733"/>
      <point x="847" y="-733" type="curve"/>
      <point x="1046" y="-696"/>
      <point x="1132" y="-531"/>
      <point x="1132" y="-441" type="curve"/>
      <point x="1132" y="-331"/>
      <point x="1015" y="-279"/>
      <point x="907" y="-263" type="curve"/>
      <point x="907" y="-75" type="line"/>
      <point x="907" y="-40"/>
      <point x="915" y="30"/>
      <point x="934" y="30" type="curve" smooth="yes"/>
      <point x="967" y="30"/>
      <point x="1121" y="-128"/>
      <point x="1132" y="-128" type="curve" smooth="yes"/>
      <point x="1144" y="-128"/>
      <point x="1297" y="34"/>
      <point x="1331" y="34" type="curve" smooth="yes"/>
      <point x="1350" y="34"/>
      <point x="1357" y="-41"/>
      <point x="1357" y="-75" type="curve" smooth="yes"/>
      <point x="1357" y="-986" type="line" smooth="yes"/>
      <point x="1357" y="-1035"/>
      <point x="1035" y="-1069"/>
      <point x="926" y="-1069" type="curve" smooth="yes"/>
      <point x="814" y="-1069"/>
      <point x="495" y="-1035"/>
      <point x="495" y="-986" type="curve" smooth="yes"/>
      <point x="495" y="206" type="line" smooth="yes"/>
      <point x="495" y="454"/>
      <point x="356" y="570"/>
      <point x="135" y="570" type="curve" smooth="yes"/>
      <point x="26" y="570"/>
      <point x="-52" y="484"/>
      <point x="-68" y="420" type="curve"/>
      <point x="-29" y="443"/>
      <point x="11" y="465"/>
      <point x="64" y="465" type="curve"/>
      <point x="154" y="465"/>
      <point x="195" y="350"/>
      <point x="195" y="187" type="curve" smooth="yes"/>
      <point x="195" y="-1024" type="line" smooth="yes"/>
      <point x="195" y="-1129"/>
      <point x="659" y="-1200"/>
      <point x="926" y="-1200" type="curve" smooth="yes"/>
      <point x="1196" y="-1200"/>
      <point x="1657" y="-1129"/>
      <point x="1657" y="-1024" type="curve" smooth="yes"/>
      <point x="1657" y="-30" type="line" smooth="yes"/>
      <point x="1657" y="67"/>
      <point x="1500" y="240"/>
      <point x="1376" y="240" type="curve" smooth="yes"/>
      <point x="1324" y="240"/>
      <point x="1275" y="206"/>
      <point x="1222" y="165" type="curve"/>
      <point x="1189" y="138"/>
      <point x="1155" y="109"/>
      <point x="1132" y="86" type="curve"/>
      <point x="1109" y="109"/>
      <point x="1077" y="138"/>
      <point x="1042" y="165" type="curve"/>
      <point x="990" y="206"/>
      <point x="937" y="240"/>
      <point x="889" y="240" type="curve" smooth="yes"/>
      <point x="765" y="240"/>
      <point x="607" y="67"/>
      <point x="607" y="-30" type="curve" smooth="yes"/>
    </contour>
    <contour>
      <point x="946" y="637" type="line"/>
      <point x="1321" y="637" type="line"/>
      <point x="1321" y="2077" type="line"/>
      <point x="946" y="2077" type="line"/>
      <point x="946" y="1992"/>
      <point x="860" y="1766"/>
      <point x="759" y="1766" type="curve"/>
      <point x="707" y="1766"/>
      <point x="687" y="1811"/>
      <point x="687" y="1837" type="curve"/>
      <point x="762" y="1858"/>
      <point x="830" y="1908"/>
      <point x="830" y="1987" type="curve"/>
      <point x="830" y="2062"/>
      <point x="763" y="2133"/>
      <point x="627" y="2133" type="curve" smooth="yes"/>
      <point x="496" y="2133"/>
      <point x="365" y="2051"/>
      <point x="365" y="1874" type="curve" smooth="yes"/>
      <point x="365" y="1742"/>
      <point x="499" y="1608"/>
      <point x="699" y="1608" type="curve" smooth="yes"/>
      <point x="786" y="1608"/>
      <point x="878" y="1646"/>
      <point x="946" y="1706" type="curve"/>
    </contour>
    <contour>
      <point x="1027" y="-441" type="curve" smooth="yes"/>
      <point x="1027" y="-492"/>
      <point x="959" y="-567"/>
      <point x="907" y="-583" type="curve"/>
      <point x="907" y="-349" type="line"/>
      <point x="955" y="-352"/>
      <point x="1027" y="-385"/>
    </contour>
  </outline>
</glyph>
<glyph name="uni19F6" format="2">
  <advance width="1390"/>
  <unicode hex="19F6"/>
  <outline>
    <contour>
      <point x="1242" y="-525" type="curve" smooth="yes"/>
      <point x="1242" y="-71"/>
      <point x="999" y="150"/>
      <point x="751" y="150" type="curve"/>
      <point x="695" y="150"/>
      <point x="658" y="146"/>
      <point x="627" y="139" type="curve"/>
      <point x="658" y="199"/>
      <point x="676" y="270"/>
      <point x="676" y="326" type="curve"/>
      <point x="676" y="435"/>
      <point x="594" y="480"/>
      <point x="474" y="480" type="curve" smooth="yes"/>
      <point x="266" y="480"/>
      <point x="162" y="322"/>
      <point x="117" y="247" type="curve"/>
      <point x="174" y="290"/>
      <point x="236" y="322"/>
      <point x="320" y="322" type="curve"/>
      <point x="350" y="322"/>
      <point x="399" y="285"/>
      <point x="399" y="199" type="curve" smooth="yes"/>
      <point x="399" y="74"/>
      <point x="372" y="-37"/>
      <point x="316" y="-124" type="curve"/>
      <point x="375" y="-71"/>
      <point x="481" y="-8"/>
      <point x="699" y="-8" type="curve"/>
      <point x="860" y="-8"/>
      <point x="942" y="-304"/>
      <point x="942" y="-525" type="curve" smooth="yes"/>
      <point x="942" y="-817"/>
      <point x="815" y="-1050"/>
      <point x="680" y="-1050" type="curve" smooth="yes"/>
      <point x="537" y="-1050"/>
      <point x="492" y="-874" name="hr01"/>
      <point x="492" y="-754" type="curve" smooth="yes"/>
      <point x="492" y="-705" type="line"/>
      <point x="527" y="-736"/>
      <point x="582" y="-754"/>
      <point x="650" y="-754" type="curve"/>
      <point x="762" y="-754"/>
      <point x="837" y="-705"/>
      <point x="837" y="-596" type="curve" smooth="yes"/>
      <point x="837" y="-473"/>
      <point x="696" y="-405"/>
      <point x="564" y="-405" type="curve" smooth="yes"/>
      <point x="304" y="-405"/>
      <point x="192" y="-630"/>
      <point x="192" y="-758" type="curve" smooth="yes"/>
      <point x="192" y="-1035"/>
      <point x="411" y="-1200"/>
      <point x="680" y="-1200" type="curve" smooth="yes"/>
      <point x="969" y="-1200"/>
      <point x="1242" y="-953"/>
    </contour>
    <contour>
      <point x="736" y="637" type="line"/>
      <point x="1111" y="637" type="line" name="hr02"/>
      <point x="1111" y="2077" type="line"/>
      <point x="736" y="2077" type="line"/>
      <point x="736" y="1992"/>
      <point x="650" y="1766"/>
      <point x="549" y="1766" type="curve"/>
      <point x="497" y="1766"/>
      <point x="477" y="1811"/>
      <point x="477" y="1837" type="curve"/>
      <point x="552" y="1858"/>
      <point x="620" y="1908"/>
      <point x="620" y="1987" type="curve"/>
      <point x="620" y="2062"/>
      <point x="553" y="2133"/>
      <point x="417" y="2133" type="curve" smooth="yes"/>
      <point x="286" y="2133"/>
      <point x="155" y="2051"/>
      <point x="155" y="1874" type="curve" smooth="yes"/>
      <point x="155" y="1742"/>
      <point x="289" y="1608"/>
      <point x="489" y="1608" type="curve" smooth="yes"/>
      <point x="576" y="1608"/>
      <point x="668" y="1646"/>
      <point x="736" y="1706" type="curve"/>
    </contour>
  </outline>
</glyph>
<glyph name="uni19F8" format="2">
  <advance width="1390"/>
  <unicode hex="19F8"/>
  <outline>
    <contour>
      <point x="162" y="-668" type="curve" smooth="yes"/>
      <point x="162" y="-1064"/>
      <point x="331" y="-1200"/>
      <point x="481" y="-1200" type="curve"/>
      <point x="585" y="-1200"/>
      <point x="687" y="-1156"/>
      <point x="725" y="-1118" type="curve"/>
      <point x="762" y="-1155"/>
      <point x="864" y="-1200"/>
      <point x="969" y="-1200" type="curve"/>
      <point x="1149" y="-1200"/>
      <point x="1250" y="-994"/>
      <point x="1250" y="-795" type="curve" smooth="yes"/>
      <point x="1250" y="-619"/>
      <point x="1140" y="-465"/>
      <point x="927" y="-465" type="curve" smooth="yes"/>
      <point x="774" y="-465"/>
      <point x="661" y="-560"/>
      <point x="661" y="-664" type="curve" smooth="yes"/>
      <point x="661" y="-724"/>
      <point x="700" y="-829"/>
      <point x="849" y="-829" type="curve" smooth="yes"/>
      <point x="896" y="-829"/>
      <point x="936" y="-820"/>
      <point x="969" y="-803" type="curve"/>
      <point x="969" y="-878"/>
      <point x="939" y="-1024"/>
      <point x="875" y="-1024" type="curve"/>
      <point x="822" y="-1024"/>
      <point x="781" y="-1005"/>
      <point x="725" y="-938" type="curve"/>
      <point x="669" y="-1005"/>
      <point x="627" y="-1028" name="hr01"/>
      <point x="575" y="-1028" type="curve"/>
      <point x="496" y="-1028"/>
      <point x="462" y="-844"/>
      <point x="462" y="-686" type="curve" smooth="yes"/>
      <point x="462" y="-323"/>
      <point x="541" y="-229"/>
      <point x="597" y="-229" type="curve" smooth="yes"/>
      <point x="735" y="-229"/>
      <point x="790" y="-296" name="hr02"/>
      <point x="920" y="-296" type="curve" smooth="yes"/>
      <point x="1104" y="-296"/>
      <point x="1220" y="-146"/>
      <point x="1220" y="37" type="curve" smooth="yes"/>
      <point x="1220" y="124"/>
      <point x="1160" y="211" name="hr03"/>
      <point x="1160" y="307" type="curve" smooth="yes"/>
      <point x="1160" y="390"/>
      <point x="1197" y="472"/>
      <point x="1276" y="472" type="curve"/>
      <point x="1230" y="529"/>
      <point x="1189" y="566"/>
      <point x="1077" y="566" type="curve"/>
      <point x="950" y="566"/>
      <point x="867" y="424"/>
      <point x="867" y="289" type="curve" smooth="yes"/>
      <point x="867" y="225"/>
      <point x="920" y="147" name="hr04"/>
      <point x="920" y="64" type="curve" smooth="yes"/>
      <point x="920" y="-16"/>
      <point x="912" y="-79"/>
      <point x="852" y="-79" type="curve" smooth="yes"/>
      <point x="740" y="-79"/>
      <point x="706" y="-23" name="hr05"/>
      <point x="552" y="-23" type="curve" smooth="yes"/>
      <point x="421" y="-23"/>
      <point x="162" y="-165"/>
    </contour>
    <contour>
      <point x="726" y="637" type="line"/>
      <point x="1101" y="637" type="line"/>
      <point x="1101" y="2077" type="line"/>
      <point x="726" y="2077" type="line"/>
      <point x="726" y="1992"/>
      <point x="640" y="1766"/>
      <point x="539" y="1766" type="curve"/>
      <point x="487" y="1766"/>
      <point x="467" y="1811"/>
      <point x="467" y="1837" type="curve"/>
      <point x="542" y="1858"/>
      <point x="610" y="1908"/>
      <point x="610" y="1987" type="curve"/>
      <point x="610" y="2062"/>
      <point x="543" y="2133"/>
      <point x="407" y="2133" type="curve" smooth="yes"/>
      <point x="276" y="2133"/>
      <point x="145" y="2051"/>
      <point x="145" y="1874" type="curve" smooth="yes" name="hr06"/>
      <point x="145" y="1742"/>
      <point x="279" y="1608"/>
      <point x="479" y="1608" type="curve" smooth="yes"/>
      <point x="566" y="1608"/>
      <point x="658" y="1646"/>
      <point x="726" y="1706" type="curve"/>
    </contour>
  </outline>
</glyph>
<glyph name="uni19FD" format="2">
  <advance width="3200"/>
  <unicode hex="19FD"/>
  <outline>
    <contour>
      <point x="1500" y="-1094" type="line"/>
      <point x="1529" y="-1181"/>
      <point x="1655" y="-1203"/>
      <point x="1740" y="-1203" type="curve"/>
      <point x="1939" y="-1166"/>
      <point x="2025" y="-1001"/>
      <point x="2025" y="-911" type="curve"/>
      <point x="2025" y="-801"/>
      <point x="1908" y="-749"/>
      <point x="1800" y="-733" type="curve"/>
      <point x="1800" y="34" type="line"/>
      <point x="1800" y="79"/>
      <point x="1890" y="109"/>
      <point x="1950" y="109" type="curve" smooth="yes"/>
      <point x="2010" y="109"/>
      <point x="2100" y="79"/>
      <point x="2100" y="34" type="curve" smooth="yes"/>
      <point x="2100" y="-1200" type="line"/>
      <point x="2400" y="-1200" type="line"/>
      <point x="2400" y="34" type="line"/>
      <point x="2400" y="79"/>
      <point x="2490" y="109"/>
      <point x="2550" y="109" type="curve" smooth="yes"/>
      <point x="2610" y="109"/>
      <point x="2700" y="79"/>
      <point x="2700" y="34" type="curve" smooth="yes"/>
      <point x="2700" y="-1200" type="line"/>
      <point x="3000" y="-1200" type="line"/>
      <point x="3000" y="52" type="line"/>
      <point x="3000" y="146"/>
      <point x="2755" y="240"/>
      <point x="2550" y="240" type="curve" smooth="yes"/>
      <point x="2437" y="240"/>
      <point x="2330" y="222"/>
      <point x="2250" y="187" type="curve"/>
      <point x="2170" y="222"/>
      <point x="2063" y="240"/>
      <point x="1950" y="240" type="curve"/>
      <point x="1745" y="240"/>
      <point x="1500" y="146"/>
      <point x="1500" y="52" type="curve" smooth="yes"/>
    </contour>
    <contour>
      <point x="572" y="-559" type="curve" smooth="yes"/>
      <point x="752" y="-559"/>
      <point x="890" y="-420"/>
      <point x="890" y="-308" type="curve"/>
      <point x="890" y="-173"/>
      <point x="797" y="-116"/>
      <point x="696" y="-116" type="curve" smooth="yes"/>
      <point x="576" y="-116"/>
      <point x="540" y="-195"/>
      <point x="540" y="-248" type="curve" smooth="yes"/>
      <point x="540" y="-315"/>
      <point x="569" y="-341"/>
      <point x="625" y="-360" type="curve"/>
      <point x="625" y="-391"/>
      <point x="599" y="-409"/>
      <point x="576" y="-409" type="curve"/>
      <point x="509" y="-409"/>
      <point x="452" y="-315"/>
      <point x="452" y="-195" type="curve" smooth="yes"/>
      <point x="452" y="8"/>
      <point x="564" y="90" name="hr01"/>
      <point x="696" y="90" type="curve" smooth="yes"/>
      <point x="850" y="90"/>
      <point x="977" y="-24"/>
      <point x="977" y="-420" type="curve" smooth="yes"/>
      <point x="977" y="-809"/>
      <point x="699" y="-1106"/>
      <point x="407" y="-1106" type="curve" smooth="yes"/>
      <point x="384" y="-1106" type="line" smooth="yes"/>
      <point x="356" y="-1106"/>
      <point x="305" y="-1103"/>
      <point x="269" y="-1091" type="curve"/>
      <point x="320" y="-1155"/>
      <point x="457" y="-1200"/>
      <point x="561" y="-1200" type="curve"/>
      <point x="865" y="-1200"/>
      <point x="1277" y="-904"/>
      <point x="1277" y="-439" type="curve" smooth="yes"/>
      <point x="1277" y="49"/>
      <point x="1029" y="240"/>
      <point x="696" y="240" type="curve" smooth="yes"/>
      <point x="359" y="240"/>
      <point x="152" y="45"/>
      <point x="152" y="-176" type="curve" smooth="yes"/>
      <point x="152" y="-405"/>
      <point x="311" y="-559"/>
    </contour>
    <contour>
      <point x="1656" y="637" type="line"/>
      <point x="2031" y="637" type="line"/>
      <point x="2031" y="2077" type="line"/>
      <point x="1656" y="2077" type="line"/>
      <point x="1656" y="1992"/>
      <point x="1570" y="1766"/>
      <point x="1469" y="1766" type="curve"/>
      <point x="1417" y="1766"/>
      <point x="1397" y="1811"/>
      <point x="1397" y="1837" type="curve"/>
      <point x="1472" y="1858"/>
      <point x="1540" y="1908"/>
      <point x="1540" y="1987" type="curve"/>
      <point x="1540" y="2062"/>
      <point x="1473" y="2133"/>
      <point x="1337" y="2133" type="curve" smooth="yes"/>
      <point x="1206" y="2133"/>
      <point x="1075" y="2051"/>
      <point x="1075" y="1874" type="curve" smooth="yes"/>
      <point x="1075" y="1742"/>
      <point x="1209" y="1608"/>
      <point x="1409" y="1608" type="curve" smooth="yes"/>
      <point x="1496" y="1608"/>
      <point x="1588" y="1646"/>
      <point x="1656" y="1706" type="curve"/>
    </contour>
    <contour>
      <point x="1920" y="-911" type="curve" smooth="yes"/>
      <point x="1920" y="-962"/>
      <point x="1852" y="-1037"/>
      <point x="1800" y="-1053" type="curve"/>
      <point x="1800" y="-819" type="line" name="hr02"/>
      <point x="1848" y="-822"/>
      <point x="1920" y="-855"/>
    </contour>
  </outline>
</glyph>
<glyph name="uni178817B6" format="2">
  <advance width="3375"/>
  <anchor x="2437" y="0" name="L"/>
  <anchor x="2437" y="1440" name="U"/>
  <outline>
    <contour>
      <point x="2137" y="887" type="line"/>
      <point x="2137" y="206" type="line" smooth="yes"/>
      <point x="2137" y="161"/>
      <point x="2010" y="131"/>
      <point x="1950" y="131" type="curve" smooth="yes"/>
      <point x="1890" y="131"/>
      <point x="1762" y="161"/>
      <point x="1762" y="206" type="curve" smooth="yes"/>
      <point x="1762" y="910" type="line" smooth="yes"/>
      <point x="1762" y="975"/>
      <point x="1541" y="1084"/>
      <point x="1421" y="1124" type="curve" smooth="yes"/>
      <point x="1419" y="1125"/>
      <point x="1418" y="1126"/>
      <point x="1418" y="1128" type="curve"/>
      <point x="1421" y="1143"/>
      <point x="1428" y="1165"/>
      <point x="1446" y="1177" type="curve" smooth="yes"/>
      <point x="1454" y="1183"/>
      <point x="1464" y="1186"/>
      <point x="1474" y="1186" type="curve" smooth="yes"/>
      <point x="1533" y="1186"/>
      <point x="1607" y="1093"/>
      <point x="1702" y="1093" type="curve" smooth="yes"/>
      <point x="1783" y="1093"/>
      <point x="1852" y="1219"/>
      <point x="1883" y="1305" type="curve"/>
      <point x="1860" y="1295"/>
      <point x="1836" y="1293"/>
      <point x="1813" y="1293" type="curve" smooth="yes"/>
      <point x="1758" y="1293"/>
      <point x="1562" y="1440"/>
      <point x="1490" y="1440" type="curve" smooth="yes"/>
      <point x="1406" y="1440"/>
      <point x="1303" y="1165"/>
      <point x="1278" y="1061" type="curve"/>
      <point x="1278" y="1055"/>
      <point x="1280" y="1050"/>
      <point x="1285" y="1049" type="curve" smooth="yes"/>
      <point x="1390" y="1037"/>
      <point x="1462" y="963"/>
      <point x="1462" y="919" type="curve" smooth="yes"/>
      <point x="1462" y="206" type="line" smooth="yes"/>
      <point x="1462" y="161"/>
      <point x="1372" y="131"/>
      <point x="1312" y="131" type="curve" smooth="yes"/>
      <point x="1252" y="131"/>
      <point x="1162" y="161"/>
      <point x="1162" y="206" type="curve" smooth="yes"/>
      <point x="1162" y="1252" type="line" smooth="yes"/>
      <point x="1162" y="1346"/>
      <point x="919" y="1440"/>
      <point x="712" y="1440" type="curve" smooth="yes"/>
      <point x="506" y="1440"/>
      <point x="262" y="1346"/>
      <point x="262" y="1252" type="curve" smooth="yes"/>
      <point x="262" y="108" type="line"/>
      <point x="292" y="32"/>
      <point x="400" y="0"/>
      <point x="515" y="0" type="curve"/>
      <point x="681" y="31"/>
      <point x="789" y="161"/>
      <point x="789" y="290" type="curve" smooth="yes"/>
      <point x="789" y="414"/>
      <point x="692" y="532"/>
      <point x="562" y="555" type="curve"/>
      <point x="562" y="1234" type="line" smooth="yes"/>
      <point x="562" y="1279"/>
      <point x="652" y="1309"/>
      <point x="712" y="1309" type="curve" smooth="yes"/>
      <point x="772" y="1309"/>
      <point x="862" y="1279"/>
      <point x="862" y="1234" type="curve" smooth="yes"/>
      <point x="862" y="187" type="line" smooth="yes"/>
      <point x="862" y="94"/>
      <point x="1106" y="0"/>
      <point x="1312" y="0" type="curve" smooth="yes"/>
      <point x="1395" y="0"/>
      <point x="1519" y="19"/>
      <point x="1612" y="56" type="curve"/>
      <point x="1706" y="19"/>
      <point x="1841" y="0"/>
      <point x="1950" y="0" type="curve" smooth="yes"/>
      <point x="2156" y="0"/>
      <point x="2437" y="94"/>
      <point x="2437" y="187" type="curve" smooth="yes"/>
      <point x="2437" y="893" type="line"/>
    </contour>
    <contour>
      <point x="667" y="290" type="curve" smooth="yes"/>
      <point x="667" y="219"/>
      <point x="613" y="179"/>
      <point x="562" y="157" type="curve"/>
      <point x="562" y="458" type="line"/>
      <point x="628" y="439"/>
      <point x="667" y="363"/>
    </contour>
    <contour>
      <point x="2437" y="681" type="line"/>
      <point x="2437" y="910" type="line" smooth="yes"/>
      <point x="2437" y="975"/>
      <point x="2216" y="1084"/>
      <point x="2096" y="1124" type="curve" smooth="yes"/>
      <point x="2094" y="1125"/>
      <point x="2091" y="1127"/>
      <point x="2093" y="1128" type="curve" smooth="yes"/>
      <point x="2152" y="1167"/>
      <point x="2377" y="1192"/>
      <point x="2503" y="1192" type="curve" smooth="yes"/>
      <point x="2572" y="1192"/>
      <point x="2777" y="1085"/>
      <point x="2848" y="1039" type="curve" smooth="yes"/>
      <point x="2865" y="1028"/>
      <point x="2887" y="1009"/>
      <point x="2887" y="984" type="curve" smooth="yes"/>
      <point x="2887" y="0" type="line"/>
      <point x="3187" y="0" type="line"/>
      <point x="3187" y="1043" type="line" smooth="yes"/>
      <point x="3187" y="1104"/>
      <point x="3155" y="1149"/>
      <point x="3090" y="1192" type="curve" smooth="yes"/>
      <point x="3032" y="1230"/>
      <point x="2631" y="1440"/>
      <point x="2559" y="1440" type="curve" smooth="yes"/>
      <point x="2350" y="1440"/>
      <point x="2203" y="1377"/>
      <point x="2091" y="1282" type="curve" smooth="yes"/>
      <point x="2016" y="1218"/>
      <point x="1973" y="1145"/>
      <point x="1953" y="1061" type="curve"/>
      <point x="1953" y="1055"/>
      <point x="1955" y="1050"/>
      <point x="1960" y="1049" type="curve" smooth="yes"/>
      <point x="2065" y="1037"/>
      <point x="2137" y="963"/>
      <point x="2137" y="919" type="curve" smooth="yes"/>
      <point x="2137" y="681" type="line"/>
    </contour>
  </outline>
</glyph>
<glyph name="uni1789.alt" format="2">
  <advance width="2138"/>
  <anchor x="1950" y="0" name="L"/>
  <anchor x="1950" y="1440" name="U"/>
  <outline>
    <contour>
      <point x="562" y="484" type="line"/>
      <point x="562" y="1125" type="line" smooth="yes"/>
      <point x="562" y="1159"/>
      <point x="570" y="1230"/>
      <point x="589" y="1230" type="curve" smooth="yes"/>
      <point x="622" y="1230"/>
      <point x="776" y="1072"/>
      <point x="787" y="1072" type="curve" smooth="yes"/>
      <point x="799" y="1072"/>
      <point x="952" y="1234"/>
      <point x="986" y="1234" type="curve" smooth="yes"/>
      <point x="1005" y="1234"/>
      <point x="1012" y="1159"/>
      <point x="1012" y="1125" type="curve" smooth="yes"/>
      <point x="1012" y="0" type="line"/>
      <point x="1312" y="0" type="line"/>
      <point x="1312" y="1215" type="line"/>
      <point x="1339" y="1264"/>
      <point x="1395" y="1305"/>
      <point x="1481" y="1305" type="curve" smooth="yes"/>
      <point x="1567" y="1305"/>
      <point x="1650" y="1241"/>
      <point x="1650" y="1159" type="curve" smooth="yes"/>
      <point x="1650" y="0" type="line"/>
      <point x="1950" y="0" type="line"/>
      <point x="1950" y="1185" type="line" smooth="yes"/>
      <point x="1950" y="1327"/>
      <point x="1702" y="1440"/>
      <point x="1481" y="1440" type="curve" smooth="yes"/>
      <point x="1365" y="1440"/>
      <point x="1264" y="1387"/>
      <point x="1192" y="1331" type="curve"/>
      <point x="1147" y="1372"/>
      <point x="1087" y="1440"/>
      <point x="1031" y="1440" type="curve" smooth="yes"/>
      <point x="979" y="1440"/>
      <point x="930" y="1406"/>
      <point x="877" y="1365" type="curve" smooth="yes"/>
      <point x="844" y="1339"/>
      <point x="810" y="1309"/>
      <point x="787" y="1286" type="curve"/>
      <point x="765" y="1309"/>
      <point x="731" y="1339"/>
      <point x="697" y="1365" type="curve" smooth="yes"/>
      <point x="645" y="1406"/>
      <point x="592" y="1440"/>
      <point x="544" y="1440" type="curve" smooth="yes"/>
      <point x="420" y="1440"/>
      <point x="262" y="1267"/>
      <point x="262" y="1170" type="curve" smooth="yes"/>
      <point x="262" y="487" type="line"/>
    </contour>
    <contour>
      <point x="262" y="700" type="line"/>
      <point x="262" y="108" type="line"/>
      <point x="292" y="32"/>
      <point x="400" y="0"/>
      <point x="515" y="0" type="curve"/>
      <point x="681" y="31"/>
      <point x="789" y="161"/>
      <point x="789" y="290" type="curve" smooth="yes"/>
      <point x="789" y="414"/>
      <point x="692" y="532"/>
      <point x="562" y="555" type="curve"/>
      <point x="562" y="720" type="line"/>
    </contour>
    <contour>
      <point x="667" y="290" type="curve" smooth="yes"/>
      <point x="667" y="219"/>
      <point x="613" y="179"/>
      <point x="562" y="157" type="curve"/>
      <point x="562" y="458" type="line"/>
      <point x="628" y="439"/>
      <point x="667" y="363"/>
    </contour>
  </outline>
</glyph>
<glyph name="uni178E17C5.right" format="2">
  <advance width="3300"/>
  <anchor x="2252" y="0" name="L"/>
  <anchor x="2252" y="1440" name="U"/>
  <outline>
    <contour>
      <point x="562" y="497" type="line"/>
      <point x="562" y="1234" type="line" smooth="yes"/>
      <point x="562" y="1279"/>
      <point x="652" y="1309"/>
      <point x="712" y="1309" type="curve" smooth="yes"/>
      <point x="772" y="1309"/>
      <point x="862" y="1279"/>
      <point x="862" y="1234" type="curve" smooth="yes"/>
      <point x="862" y="79" type="line" smooth="yes"/>
      <point x="862" y="37"/>
      <point x="934" y="0"/>
      <point x="1005" y="0" type="curve" smooth="yes"/>
      <point x="1087" y="0" type="line" smooth="yes"/>
      <point x="1200" y="0"/>
      <point x="1252" y="52"/>
      <point x="1309" y="150" type="curve"/>
      <point x="1365" y="52"/>
      <point x="1425" y="0"/>
      <point x="1537" y="0" type="curve" smooth="yes"/>
      <point x="1620" y="0" type="line" smooth="yes"/>
      <point x="1691" y="0"/>
      <point x="1762" y="37"/>
      <point x="1762" y="79" type="curve" smooth="yes"/>
      <point x="1762" y="1234" type="line" smooth="yes"/>
      <point x="1762" y="1279"/>
      <point x="1852" y="1305"/>
      <point x="1912" y="1305" type="curve" smooth="yes"/>
      <point x="1972" y="1305"/>
      <point x="2062" y="1279"/>
      <point x="2062" y="1234" type="curve" smooth="yes"/>
      <point x="2062" y="0" type="line"/>
      <point x="2362" y="0" type="line"/>
      <point x="2362" y="1252" type="line" smooth="yes"/>
      <point x="2362" y="1346"/>
      <point x="2119" y="1440"/>
      <point x="1912" y="1440" type="curve" smooth="yes"/>
      <point x="1706" y="1440"/>
      <point x="1462" y="1346"/>
      <point x="1462" y="1252" type="curve" smooth="yes"/>
      <point x="1462" y="277" type="line" smooth="yes"/>
      <point x="1462" y="262"/>
      <point x="1462" y="251"/>
      <point x="1451" y="251" type="curve" smooth="yes"/>
      <point x="1406" y="251"/>
      <point x="1339" y="375"/>
      <point x="1312" y="375" type="curve" smooth="yes"/>
      <point x="1286" y="375"/>
      <point x="1215" y="251"/>
      <point x="1170" y="251" type="curve" smooth="yes"/>
      <point x="1162" y="251"/>
      <point x="1162" y="262"/>
      <point x="1162" y="277" type="curve" smooth="yes"/>
      <point x="1162" y="1252" type="line" smooth="yes"/>
      <point x="1162" y="1346"/>
      <point x="919" y="1440"/>
      <point x="712" y="1440" type="curve" smooth="yes"/>
      <point x="506" y="1440"/>
      <point x="262" y="1346"/>
      <point x="262" y="1252" type="curve" smooth="yes"/>
      <point x="262" y="497" type="line"/>
    </contour>
    <contour>
      <point x="262" y="736" type="line"/>
      <point x="262" y="108" type="line"/>
      <point x="292" y="32"/>
      <point x="400" y="0"/>
      <point x="515" y="0" type="curve"/>
      <point x="681" y="31"/>
      <point x="789" y="161"/>
      <point x="789" y="290" type="curve" smooth="yes"/>
      <point x="789" y="414"/>
      <point x="692" y="532"/>
      <point x="562" y="555" type="curve"/>
      <point x="562" y="742" type="line"/>
    </contour>
    <contour>
      <point x="667" y="290" type="curve" smooth="yes"/>
      <point x="667" y="219"/>
      <point x="613" y="179"/>
      <point x="562" y="157" type="curve"/>
      <point x="562" y="458" type="line"/>
      <point x="628" y="439"/>
      <point x="667" y="363"/>
    </contour>
    <contour>
      <point x="2842" y="1792" type="curve"/>
      <point x="2842" y="1410" type="line" smooth="yes"/>
      <point x="2842" y="1352"/>
      <point x="2818" y="1307"/>
      <point x="2785" y="1261" type="curve"/>
      <point x="3008" y="1170" type="line"/>
      <point x="3071" y="1257"/>
      <point x="3112" y="1323"/>
      <point x="3112" y="1410" type="curve" smooth="yes"/>
      <point x="3112" y="1788" type="line" smooth="yes"/>
      <point x="3112" y="1858"/>
      <point x="2942" y="1922"/>
      <point x="2859" y="1922" type="curve" smooth="yes"/>
      <point x="2788" y="1922"/>
      <point x="2758" y="1908"/>
      <point x="2731" y="1893" type="curve"/>
      <point x="2806" y="1893"/>
      <point x="2842" y="1825"/>
    </contour>
    <contour>
      <point x="2342" y="1112" type="line"/>
      <point x="2396" y="1153"/>
      <point x="2491" y="1192"/>
      <point x="2538" y="1192" type="curve" smooth="yes"/>
      <point x="2587" y="1192"/>
      <point x="2702" y="1123"/>
      <point x="2773" y="1072" type="curve" smooth="yes"/>
      <point x="2790" y="1060"/>
      <point x="2812" y="1039"/>
      <point x="2812" y="1014" type="curve" smooth="yes"/>
      <point x="2812" y="0" type="line"/>
      <point x="3112" y="0" type="line"/>
      <point x="3112" y="1063" type="line" smooth="yes"/>
      <point x="3112" y="1124"/>
      <point x="3077" y="1166"/>
      <point x="3015" y="1212" type="curve" smooth="yes"/>
      <point x="2957" y="1255"/>
      <point x="2666" y="1440"/>
      <point x="2594" y="1440" type="curve" smooth="yes"/>
      <point x="2487" y="1440"/>
      <point x="2317" y="1324"/>
      <point x="2237" y="1266" type="curve"/>
    </contour>
  </outline>
</glyph>
<glyph name="uni179017B6" format="2">
  <advance width="2250"/>
  <anchor x="1200" y="0" name="L"/>
  <anchor x="1200" y="1740" name="U"/>
  <outline>
    <contour>
      <point x="975" y="1256" type="curve"/>
      <point x="896" y="1281"/>
      <point x="527" y="1440"/>
      <point x="463" y="1440" type="curve" smooth="yes"/>
      <point x="299" y="1440"/>
      <point x="177" y="1235"/>
      <point x="104" y="1064" type="curve" smooth="yes"/>
      <point x="101" y="1057"/>
      <point x="100" y="1035"/>
      <point x="100" y="1029" type="curve" smooth="yes"/>
      <point x="100" y="958"/>
      <point x="189" y="902"/>
      <point x="262" y="890" type="curve"/>
      <point x="262" y="206" type="line" smooth="yes"/>
      <point x="262" y="94"/>
      <point x="562" y="0"/>
      <point x="787" y="0" type="curve" smooth="yes"/>
      <point x="1012" y="0"/>
      <point x="1312" y="94"/>
      <point x="1312" y="206" type="curve" smooth="yes"/>
      <point x="1312" y="782" type="line"/>
      <point x="1282" y="858"/>
      <point x="1174" y="890"/>
      <point x="1059" y="890" type="curve"/>
      <point x="893" y="859"/>
      <point x="785" y="729"/>
      <point x="785" y="600" type="curve" smooth="yes"/>
      <point x="785" y="476"/>
      <point x="882" y="358"/>
      <point x="1012" y="335" type="curve"/>
      <point x="1012" y="225" type="line" smooth="yes"/>
      <point x="1012" y="169"/>
      <point x="881" y="131"/>
      <point x="787" y="131" type="curve" smooth="yes"/>
      <point x="694" y="131"/>
      <point x="562" y="169"/>
      <point x="562" y="225" type="curve" smooth="yes"/>
      <point x="562" y="950" type="line"/>
      <point x="409" y="966"/>
      <point x="285" y="1027"/>
      <point x="285" y="1084" type="curve" smooth="yes"/>
      <point x="285" y="1105"/>
      <point x="294" y="1129"/>
      <point x="313" y="1153" type="curve" smooth="yes"/>
      <point x="338" y="1185"/>
      <point x="362" y="1206"/>
      <point x="397" y="1206" type="curve" smooth="yes"/>
      <point x="466" y="1206"/>
      <point x="839" y="1024"/>
      <point x="924" y="1024" type="curve" smooth="yes"/>
      <point x="1127" y="1024"/>
      <point x="1312" y="1207"/>
      <point x="1312" y="1372" type="curve" smooth="yes"/>
      <point x="1312" y="1462"/>
      <point x="1297" y="1515"/>
      <point x="1226" y="1601" type="curve" smooth="yes"/>
      <point x="1159" y="1684"/>
      <point x="1057" y="1740"/>
      <point x="934" y="1740" type="curve" smooth="yes"/>
      <point x="810" y="1740"/>
      <point x="784" y="1680"/>
      <point x="784" y="1627" type="curve" smooth="yes"/>
      <point x="784" y="1575"/>
      <point x="847" y="1519"/>
      <point x="960" y="1501" type="curve" smooth="yes"/>
      <point x="1120" y="1475"/>
      <point x="1167" y="1444"/>
      <point x="1167" y="1365" type="curve" smooth="yes"/>
      <point x="1167" y="1290"/>
      <point x="1050" y="1256"/>
    </contour>
    <contour>
      <point x="907" y="600" type="curve" smooth="yes"/>
      <point x="907" y="671"/>
      <point x="961" y="711"/>
      <point x="1012" y="733" type="curve"/>
      <point x="1012" y="432" type="line"/>
      <point x="946" y="451"/>
      <point x="907" y="527"/>
    </contour>
    <contour>
      <point x="1301" y="742" type="line"/>
      <point x="1334" y="873"/>
      <point x="1471" y="1185"/>
      <point x="1538" y="1185" type="curve" smooth="yes"/>
      <point x="1587" y="1185"/>
      <point x="1648" y="1140"/>
      <point x="1723" y="1070" type="curve" smooth="yes"/>
      <point x="1739" y="1055"/>
      <point x="1762" y="1018"/>
      <point x="1762" y="993" type="curve" smooth="yes"/>
      <point x="1762" y="0" type="line"/>
      <point x="2062" y="0" type="line"/>
      <point x="2062" y="1043" type="line" smooth="yes"/>
      <point x="2062" y="1104"/>
      <point x="2023" y="1139"/>
      <point x="1965" y="1192" type="curve" smooth="yes"/>
      <point x="1907" y="1245"/>
      <point x="1666" y="1440"/>
      <point x="1594" y="1440" type="curve" smooth="yes"/>
      <point x="1417" y="1440"/>
      <point x="1232" y="964"/>
      <point x="1192" y="816" type="curve"/>
    </contour>
  </outline>
</glyph>
<glyph name="uni179417B6" format="2">
  <advance width="2250"/>
  <anchor x="1237" y="-150" name="L"/>
  <anchor x="1350" y="1440" name="U"/>
  <outline>
    <contour>
      <point x="1012" y="206" type="line"/>
      <point x="1012" y="161"/>
      <point x="866" y="131"/>
      <point x="787" y="131" type="curve"/>
      <point x="708" y="131"/>
      <point x="562" y="161"/>
      <point x="562" y="206" type="curve"/>
      <point x="562" y="975" type="line"/>
      <point x="262" y="982" type="line"/>
      <point x="262" y="187" type="line"/>
      <point x="262" y="94"/>
      <point x="581" y="0"/>
      <point x="787" y="0" type="curve"/>
      <point x="843" y="0"/>
      <point x="949" y="7"/>
      <point x="1012" y="19" type="curve"/>
      <point x="1012" y="-150" type="line"/>
      <point x="1312" y="-150" type="line"/>
      <point x="1312" y="844" type="line"/>
      <point x="1012" y="844" type="line"/>
    </contour>
    <contour>
      <point x="1331" y="1440" type="curve" smooth="yes"/>
      <point x="1282" y="1440"/>
      <point x="1244" y="1419"/>
      <point x="1201" y="1387" type="curve" smooth="yes"/>
      <point x="1171" y="1364"/>
      <point x="1099" y="1301"/>
      <point x="1071" y="1268" type="curve"/>
      <point x="992" y="1298"/>
      <point x="577" y="1440"/>
      <point x="513" y="1440" type="curve" smooth="yes"/>
      <point x="429" y="1440"/>
      <point x="129" y="1168"/>
      <point x="104" y="1064" type="curve" smooth="yes"/>
      <point x="102" y="1057"/>
      <point x="100" y="1035"/>
      <point x="100" y="1029" type="curve" smooth="yes"/>
      <point x="100" y="958"/>
      <point x="189" y="902"/>
      <point x="262" y="890" type="curve"/>
      <point x="562" y="975" type="line"/>
      <point x="479" y="991"/>
      <point x="295" y="1027"/>
      <point x="295" y="1084" type="curve" smooth="yes"/>
      <point x="295" y="1117"/>
      <point x="321" y="1145"/>
      <point x="365" y="1182" type="curve" smooth="yes"/>
      <point x="379" y="1194"/>
      <point x="401" y="1206"/>
      <point x="427" y="1206" type="curve" smooth="yes"/>
      <point x="496" y="1206"/>
      <point x="939" y="1033"/>
      <point x="1024" y="1033" type="curve"/>
      <point x="1049" y="1033"/>
      <point x="1127" y="1102"/>
      <point x="1171" y="1142" type="curve" smooth="yes"/>
      <point x="1212" y="1180"/>
      <point x="1238" y="1193"/>
      <point x="1275" y="1193" type="curve"/>
      <point x="1344" y="1193"/>
      <point x="1652" y="1065"/>
      <point x="1723" y="1025" type="curve" smooth="yes"/>
      <point x="1740" y="1015"/>
      <point x="1762" y="995"/>
      <point x="1762" y="970" type="curve" smooth="yes"/>
      <point x="1762" y="0" type="line"/>
      <point x="2062" y="0" type="line"/>
      <point x="2062" y="1043" type="line" smooth="yes"/>
      <point x="2062" y="1104"/>
      <point x="2030" y="1149"/>
      <point x="1965" y="1192" type="curve" smooth="yes"/>
      <point x="1907" y="1230"/>
      <point x="1403" y="1440"/>
    </contour>
  </outline>
</glyph>
<glyph name="uni179517C5.right" format="2">
  <advance width="2250"/>
  <anchor x="1200" y="0" name="L"/>
  <anchor x="1200" y="1440" name="U"/>
  <outline>
    <contour>
      <point x="1012" y="474" type="line"/>
      <point x="1012" y="274" type="line" smooth="yes"/>
      <point x="1012" y="232"/>
      <point x="1007" y="199"/>
      <point x="997" y="199" type="curve" smooth="yes"/>
      <point x="990" y="199"/>
      <point x="959" y="221"/>
      <point x="914" y="259" type="curve" smooth="yes"/>
      <point x="871" y="295"/>
      <point x="825" y="319"/>
      <point x="787" y="319" type="curve" smooth="yes"/>
      <point x="749" y="319"/>
      <point x="700" y="294"/>
      <point x="659" y="259" type="curve" smooth="yes"/>
      <point x="614" y="221"/>
      <point x="584" y="199"/>
      <point x="577" y="199" type="curve" smooth="yes"/>
      <point x="567" y="199"/>
      <point x="562" y="232"/>
      <point x="562" y="274" type="curve" smooth="yes"/>
      <point x="562" y="950" type="line"/>
      <point x="262" y="897" type="line"/>
      <point x="262" y="82" type="line" smooth="yes"/>
      <point x="262" y="41"/>
      <point x="322" y="0"/>
      <point x="382" y="0" type="curve" smooth="yes"/>
      <point x="506" y="0" type="line" smooth="yes"/>
      <point x="554" y="0"/>
      <point x="629" y="46"/>
      <point x="671" y="82" type="curve" smooth="yes"/>
      <point x="710" y="116"/>
      <point x="767" y="159"/>
      <point x="787" y="159" type="curve" smooth="yes"/>
      <point x="807" y="159"/>
      <point x="864" y="116"/>
      <point x="903" y="82" type="curve" smooth="yes"/>
      <point x="945" y="46"/>
      <point x="1019" y="0"/>
      <point x="1068" y="0" type="curve" smooth="yes"/>
      <point x="1192" y="0" type="line" smooth="yes"/>
      <point x="1252" y="0"/>
      <point x="1312" y="41"/>
      <point x="1312" y="82" type="curve" smooth="yes"/>
      <point x="1312" y="495" type="line"/>
    </contour>
    <contour>
      <point x="975" y="1256" type="curve"/>
      <point x="896" y="1281"/>
      <point x="527" y="1440"/>
      <point x="463" y="1440" type="curve" smooth="yes"/>
      <point x="299" y="1440"/>
      <point x="177" y="1235"/>
      <point x="104" y="1064" type="curve" smooth="yes"/>
      <point x="101" y="1057"/>
      <point x="100" y="1035"/>
      <point x="100" y="1029" type="curve" smooth="yes"/>
      <point x="100" y="958"/>
      <point x="189" y="902"/>
      <point x="262" y="890" type="curve"/>
      <point x="562" y="950" type="line"/>
      <point x="409" y="966"/>
      <point x="285" y="1027"/>
      <point x="285" y="1084" type="curve" smooth="yes"/>
      <point x="285" y="1105"/>
      <point x="294" y="1129"/>
      <point x="313" y="1153" type="curve" smooth="yes"/>
      <point x="338" y="1185"/>
      <point x="362" y="1206"/>
      <point x="397" y="1206" type="curve" smooth="yes"/>
      <point x="466" y="1206"/>
      <point x="839" y="1024"/>
      <point x="924" y="1024" type="curve"/>
      <point x="1127" y="1024"/>
      <point x="1312" y="1207"/>
      <point x="1312" y="1372" type="curve" smooth="yes"/>
      <point x="1312" y="1462"/>
      <point x="1297" y="1515"/>
      <point x="1226" y="1601" type="curve" smooth="yes"/>
      <point x="1159" y="1684"/>
      <point x="1057" y="1740"/>
      <point x="934" y="1740" type="curve" smooth="yes"/>
      <point x="810" y="1740"/>
      <point x="784" y="1680"/>
      <point x="784" y="1627" type="curve" smooth="yes"/>
      <point x="784" y="1575"/>
      <point x="847" y="1519"/>
      <point x="960" y="1501" type="curve" smooth="yes"/>
      <point x="1120" y="1475"/>
      <point x="1167" y="1444"/>
      <point x="1167" y="1365" type="curve" smooth="yes"/>
      <point x="1167" y="1290"/>
      <point x="1050" y="1256"/>
    </contour>
    <contour>
      <point x="1312" y="294" type="line"/>
      <point x="1312" y="782" type="line"/>
      <point x="1282" y="858"/>
      <point x="1174" y="890"/>
      <point x="1059" y="890" type="curve"/>
      <point x="893" y="859"/>
      <point x="785" y="729"/>
      <point x="785" y="600" type="curve" smooth="yes"/>
      <point x="785" y="476"/>
      <point x="882" y="358"/>
      <point x="1012" y="335" type="curve"/>
      <point x="1012" y="288" type="line"/>
    </contour>
    <contour>
      <point x="907" y="600" type="curve" smooth="yes"/>
      <point x="907" y="671"/>
      <point x="961" y="711"/>
      <point x="1012" y="733" type="curve"/>
      <point x="1012" y="432" type="line"/>
      <point x="946" y="451"/>
      <point x="907" y="527"/>
    </contour>
    <contour>
      <point x="1792" y="1792" type="curve"/>
      <point x="1792" y="1410" type="line" smooth="yes"/>
      <point x="1792" y="1352"/>
      <point x="1768" y="1307"/>
      <point x="1735" y="1261" type="curve"/>
      <point x="1958" y="1170" type="line"/>
      <point x="2021" y="1257"/>
      <point x="2062" y="1323"/>
      <point x="2062" y="1410" type="curve" smooth="yes"/>
      <point x="2062" y="1788" type="line" smooth="yes"/>
      <point x="2062" y="1858"/>
      <point x="1892" y="1922"/>
      <point x="1809" y="1922" type="curve" smooth="yes"/>
      <point x="1738" y="1922"/>
      <point x="1708" y="1908"/>
      <point x="1681" y="1893" type="curve"/>
      <point x="1756" y="1893"/>
      <point x="1792" y="1825"/>
    </contour>
    <contour>
      <point x="1301" y="742" type="line"/>
      <point x="1334" y="873"/>
      <point x="1471" y="1185"/>
      <point x="1538" y="1185" type="curve" smooth="yes"/>
      <point x="1587" y="1185"/>
      <point x="1648" y="1140"/>
      <point x="1723" y="1070" type="curve" smooth="yes"/>
      <point x="1739" y="1055"/>
      <point x="1762" y="1018"/>
      <point x="1762" y="993" type="curve" smooth="yes"/>
      <point x="1762" y="0" type="line"/>
      <point x="2062" y="0" type="line"/>
      <point x="2062" y="1043" type="line" smooth="yes"/>
      <point x="2062" y="1104"/>
      <point x="2023" y="1139"/>
      <point x="1965" y="1192" type="curve" smooth="yes"/>
      <point x="1907" y="1245"/>
      <point x="1666" y="1440"/>
      <point x="1594" y="1440" type="curve" smooth="yes"/>
      <point x="1417" y="1440"/>
      <point x="1232" y="964"/>
      <point x="1192" y="816" type="curve"/>
    </contour>
  </outline>
</glyph>
<glyph name="uni179F17C5.right" format="2">
  <advance width="2700"/>
  <anchor x="1762" y="0" name="L"/>
  <anchor x="1762" y="1440" name="U"/>
  <outline>
    <contour>
      <point x="562" y="479" type="line"/>
      <point x="562" y="714" type="line" smooth="yes"/>
      <point x="562" y="759"/>
      <point x="652" y="789"/>
      <point x="712" y="789" type="curve" smooth="yes"/>
      <point x="772" y="789"/>
      <point x="862" y="759"/>
      <point x="862" y="714" type="curve" smooth="yes"/>
      <point x="862" y="187" type="line" smooth="yes"/>
      <point x="862" y="94"/>
      <point x="1106" y="0"/>
      <point x="1312" y="0" type="curve" smooth="yes"/>
      <point x="1519" y="0"/>
      <point x="1762" y="94"/>
      <point x="1762" y="187" type="curve" smooth="yes"/>
      <point x="1762" y="834" type="line"/>
      <point x="1462" y="876" type="line"/>
      <point x="1462" y="206" type="line" smooth="yes"/>
      <point x="1462" y="161"/>
      <point x="1372" y="131"/>
      <point x="1312" y="131" type="curve" smooth="yes"/>
      <point x="1252" y="131"/>
      <point x="1162" y="161"/>
      <point x="1162" y="206" type="curve" smooth="yes"/>
      <point x="1162" y="732" type="line" smooth="yes"/>
      <point x="1162" y="826"/>
      <point x="919" y="920"/>
      <point x="712" y="920" type="curve" smooth="yes"/>
      <point x="506" y="920"/>
      <point x="262" y="826"/>
      <point x="262" y="732" type="curve" smooth="yes"/>
      <point x="262" y="465" type="line"/>
    </contour>
    <contour>
      <point x="262" y="736" type="line"/>
      <point x="262" y="108" type="line"/>
      <point x="292" y="32"/>
      <point x="400" y="0"/>
      <point x="515" y="0" type="curve"/>
      <point x="681" y="31"/>
      <point x="789" y="161"/>
      <point x="789" y="290" type="curve" smooth="yes"/>
      <point x="789" y="414"/>
      <point x="692" y="532"/>
      <point x="562" y="555" type="curve"/>
      <point x="562" y="742" type="line"/>
    </contour>
    <contour>
      <point x="667" y="290" type="curve" smooth="yes"/>
      <point x="667" y="219"/>
      <point x="613" y="179"/>
      <point x="562" y="157" type="curve"/>
      <point x="562" y="458" type="line"/>
      <point x="628" y="439"/>
      <point x="667" y="363"/>
    </contour>
    <contour>
      <point x="862" y="839" type="line"/>
      <point x="862" y="904" type="line" smooth="yes"/>
      <point x="862" y="1009"/>
      <point x="641" y="1094"/>
      <point x="521" y="1134" type="curve" smooth="yes"/>
      <point x="519" y="1135"/>
      <point x="518" y="1136"/>
      <point x="518" y="1138" type="curve"/>
      <point x="521" y="1153"/>
      <point x="528" y="1165"/>
      <point x="546" y="1177" type="curve" smooth="yes"/>
      <point x="554" y="1183"/>
      <point x="564" y="1186"/>
      <point x="574" y="1186" type="curve" smooth="yes"/>
      <point x="663" y="1186"/>
      <point x="727" y="1105"/>
      <point x="832" y="1105" type="curve" smooth="yes"/>
      <point x="908" y="1105"/>
      <point x="960" y="1260"/>
      <point x="983" y="1346" type="curve"/>
      <point x="960" y="1336"/>
      <point x="936" y="1334"/>
      <point x="913" y="1334" type="curve" smooth="yes"/>
      <point x="858" y="1334"/>
      <point x="662" y="1440"/>
      <point x="590" y="1440" type="curve" smooth="yes"/>
      <point x="506" y="1440"/>
      <point x="403" y="1165"/>
      <point x="378" y="1061" type="curve"/>
      <point x="378" y="1055"/>
      <point x="380" y="1050"/>
      <point x="385" y="1049" type="curve" smooth="yes"/>
      <point x="490" y="1037"/>
      <point x="562" y="937"/>
      <point x="562" y="893" type="curve" smooth="yes"/>
      <point x="562" y="839" type="line"/>
    </contour>
    <contour>
      <point x="1762" y="681" type="line"/>
      <point x="1762" y="910" type="line" smooth="yes"/>
      <point x="1762" y="975"/>
      <point x="1541" y="1084"/>
      <point x="1421" y="1124" type="curve" smooth="yes"/>
      <point x="1419" y="1125"/>
      <point x="1416" y="1127"/>
      <point x="1418" y="1128" type="curve" smooth="yes"/>
      <point x="1477" y="1167"/>
      <point x="1702" y="1192"/>
      <point x="1828" y="1192" type="curve" smooth="yes"/>
      <point x="1897" y="1192"/>
      <point x="2102" y="1085"/>
      <point x="2173" y="1039" type="curve" smooth="yes"/>
      <point x="2190" y="1028"/>
      <point x="2212" y="1009"/>
      <point x="2212" y="984" type="curve" smooth="yes"/>
      <point x="2212" y="0" type="line"/>
      <point x="2512" y="0" type="line"/>
      <point x="2512" y="1043" type="line" smooth="yes"/>
      <point x="2512" y="1104"/>
      <point x="2480" y="1149"/>
      <point x="2415" y="1192" type="curve" smooth="yes"/>
      <point x="2357" y="1230"/>
      <point x="1956" y="1440"/>
      <point x="1884" y="1440" type="curve" smooth="yes"/>
      <point x="1675" y="1440"/>
      <point x="1528" y="1377"/>
      <point x="1416" y="1282" type="curve" smooth="yes"/>
      <point x="1341" y="1218"/>
      <point x="1298" y="1145"/>
      <point x="1278" y="1061" type="curve"/>
      <point x="1278" y="1055"/>
      <point x="1280" y="1050"/>
      <point x="1285" y="1049" type="curve" smooth="yes"/>
      <point x="1390" y="1037"/>
      <point x="1462" y="963"/>
      <point x="1462" y="919" type="curve" smooth="yes"/>
      <point x="1462" y="681" type="line"/>
    </contour>
    <contour>
      <point x="2242" y="1792" type="curve"/>
      <point x="2242" y="1410" type="line" smooth="yes"/>
      <point x="2242" y="1352"/>
      <point x="2218" y="1307"/>
      <point x="2185" y="1261" type="curve"/>
      <point x="2408" y="1170" type="line"/>
      <point x="2471" y="1257"/>
      <point x="2512" y="1323"/>
      <point x="2512" y="1410" type="curve" smooth="yes"/>
      <point x="2512" y="1788" type="line" smooth="yes"/>
      <point x="2512" y="1858"/>
      <point x="2342" y="1922"/>
      <point x="2259" y="1922" type="curve" smooth="yes"/>
      <point x="2188" y="1922"/>
      <point x="2158" y="1908"/>
      <point x="2131" y="1893" type="curve"/>
      <point x="2206" y="1893"/>
      <point x="2242" y="1825"/>
    </contour>
  </outline>
</glyph>
<glyph name="uni17A017B6" format="2">
  <advance width="2700"/>
  <anchor x="1612" y="0" name="L"/>
  <anchor x="1246" y="1407" name="MA"/>
  <anchor x="1612" y="1407" name="U"/>
  <outline>
    <contour>
      <point x="262" y="842" type="line"/>
      <point x="262" y="187" type="line" smooth="yes"/>
      <point x="262" y="94"/>
      <point x="506" y="0"/>
      <point x="712" y="0" type="curve" smooth="yes"/>
      <point x="919" y="0"/>
      <point x="1162" y="94"/>
      <point x="1162" y="187" type="curve" smooth="yes"/>
      <point x="1162" y="1234" type="line" smooth="yes"/>
      <point x="1162" y="1279"/>
      <point x="1252" y="1309"/>
      <point x="1312" y="1309" type="curve" smooth="yes"/>
      <point x="1372" y="1309"/>
      <point x="1462" y="1279"/>
      <point x="1462" y="1234" type="curve" smooth="yes"/>
      <point x="1462" y="0" type="line"/>
      <point x="1762" y="0" type="line"/>
      <point x="1762" y="1252" type="line" smooth="yes"/>
      <point x="1762" y="1346"/>
      <point x="1519" y="1440"/>
      <point x="1312" y="1440" type="curve" smooth="yes"/>
      <point x="1106" y="1440"/>
      <point x="862" y="1346"/>
      <point x="862" y="1252" type="curve" smooth="yes"/>
      <point x="862" y="206" type="line" smooth="yes"/>
      <point x="862" y="161"/>
      <point x="772" y="131"/>
      <point x="712" y="131" type="curve" smooth="yes"/>
      <point x="652" y="131"/>
      <point x="562" y="161"/>
      <point x="562" y="206" type="curve" smooth="yes"/>
      <point x="562" y="837" type="line"/>
    </contour>
    <contour>
      <point x="562" y="805" type="line"/>
      <point x="562" y="930" type="line" smooth="yes"/>
      <point x="562" y="995"/>
      <point x="341" y="1094"/>
      <point x="221" y="1134" type="curve" smooth="yes"/>
      <point x="219" y="1135"/>
      <point x="218" y="1136"/>
      <point x="218" y="1138" type="curve"/>
      <point x="221" y="1153"/>
      <point x="228" y="1165"/>
      <point x="246" y="1177" type="curve" smooth="yes"/>
      <point x="254" y="1183"/>
      <point x="264" y="1186"/>
      <point x="274" y="1186" type="curve" smooth="yes"/>
      <point x="363" y="1186"/>
      <point x="427" y="1105"/>
      <point x="532" y="1105" type="curve" smooth="yes"/>
      <point x="608" y="1105"/>
      <point x="660" y="1260"/>
      <point x="683" y="1346" type="curve"/>
      <point x="660" y="1336"/>
      <point x="636" y="1334"/>
      <point x="613" y="1334" type="curve" smooth="yes"/>
      <point x="558" y="1334"/>
      <point x="362" y="1440"/>
      <point x="290" y="1440" type="curve" smooth="yes"/>
      <point x="206" y="1440"/>
      <point x="103" y="1165"/>
      <point x="78" y="1061" type="curve"/>
      <point x="78" y="1055"/>
      <point x="80" y="1050"/>
      <point x="85" y="1049" type="curve" smooth="yes"/>
      <point x="190" y="1037"/>
      <point x="262" y="963"/>
      <point x="262" y="919" type="curve" smooth="yes"/>
      <point x="262" y="805" type="line"/>
    </contour>
    <contour>
      <point x="1742" y="1112" type="line"/>
      <point x="1796" y="1153"/>
      <point x="1891" y="1192"/>
      <point x="1938" y="1192" type="curve" smooth="yes"/>
      <point x="1987" y="1192"/>
      <point x="2102" y="1123"/>
      <point x="2173" y="1072" type="curve" smooth="yes"/>
      <point x="2190" y="1060"/>
      <point x="2212" y="1039"/>
      <point x="2212" y="1014" type="curve" smooth="yes"/>
      <point x="2212" y="0" type="line"/>
      <point x="2512" y="0" type="line"/>
      <point x="2512" y="1063" type="line" smooth="yes"/>
      <point x="2512" y="1124"/>
      <point x="2477" y="1166"/>
      <point x="2415" y="1212" type="curve" smooth="yes"/>
      <point x="2357" y="1255"/>
      <point x="2066" y="1440"/>
      <point x="1994" y="1440" type="curve" smooth="yes"/>
      <point x="1887" y="1440"/>
      <point x="1717" y="1324"/>
      <point x="1637" y="1266" type="curve"/>
    </contour>
  </outline>
</glyph>
<glyph name="uni17A117C5.right" format="2">
  <advance width="2700"/>
  <anchor x="1756" y="-713" name="L"/>
  <anchor x="1756" y="1440" name="U"/>
  <outline>
    <contour>
      <point x="1462" y="880" type="line"/>
      <point x="1462" y="-510" type="line"/>
      <point x="1451" y="-510"/>
      <point x="1399" y="-464"/>
      <point x="1357" y="-424" type="curve" smooth="yes"/>
      <point x="1309" y="-379"/>
      <point x="1267" y="-349"/>
      <point x="1237" y="-349" type="curve" smooth="yes"/>
      <point x="1207" y="-349"/>
      <point x="1165" y="-379"/>
      <point x="1117" y="-424" type="curve" smooth="yes"/>
      <point x="1075" y="-464"/>
      <point x="1023" y="-510"/>
      <point x="1012" y="-510" type="curve"/>
      <point x="1012" y="-255" type="line"/>
      <point x="982" y="-173"/>
      <point x="892" y="-150"/>
      <point x="772" y="-150" type="curve"/>
      <point x="660" y="-173"/>
      <point x="600" y="-225"/>
      <point x="600" y="-281" type="curve" smooth="yes"/>
      <point x="600" y="-334"/>
      <point x="656" y="-379"/>
      <point x="712" y="-390" type="curve"/>
      <point x="712" y="-630" type="line" smooth="yes"/>
      <point x="712" y="-668"/>
      <point x="783" y="-713"/>
      <point x="855" y="-713" type="curve" smooth="yes"/>
      <point x="937" y="-713" type="line" smooth="yes"/>
      <point x="1016" y="-713"/>
      <point x="1097" y="-666"/>
      <point x="1140" y="-626" type="curve" smooth="yes"/>
      <point x="1180" y="-589"/>
      <point x="1222" y="-555"/>
      <point x="1237" y="-555" type="curve" smooth="yes"/>
      <point x="1252" y="-555"/>
      <point x="1295" y="-589"/>
      <point x="1335" y="-626" type="curve" smooth="yes"/>
      <point x="1377" y="-664"/>
      <point x="1458" y="-713"/>
      <point x="1537" y="-713" type="curve" smooth="yes"/>
      <point x="1620" y="-713" type="line" smooth="yes"/>
      <point x="1691" y="-713"/>
      <point x="1762" y="-668"/>
      <point x="1762" y="-630" type="curve" smooth="yes"/>
      <point x="1762" y="851" type="line"/>
    </contour>
    <contour>
      <point x="727" y="213" type="line"/>
      <point x="727" y="157"/>
      <point x="694" y="131"/>
      <point x="650" y="131" type="curve" smooth="yes"/>
      <point x="607" y="131"/>
      <point x="573" y="157"/>
      <point x="573" y="213" type="curve" smooth="yes"/>
      <point x="573" y="439" type="line"/>
      <point x="291" y="439" type="line"/>
      <point x="291" y="199" type="line" smooth="yes"/>
      <point x="291" y="95"/>
      <point x="422" y="0"/>
      <point x="650" y="0" type="curve" smooth="yes"/>
      <point x="882" y="0"/>
      <point x="1009" y="95"/>
      <point x="1009" y="199" type="curve" smooth="yes"/>
      <point x="1009" y="457" type="line"/>
      <point x="1158" y="468"/>
      <point x="1252" y="560"/>
      <point x="1252" y="671" type="curve" smooth="yes"/>
      <point x="1252" y="784"/>
      <point x="1139" y="870"/>
      <point x="990" y="870" type="curve" smooth="yes"/>
      <point x="799" y="870"/>
      <point x="730" y="746"/>
      <point x="727" y="634" type="curve"/>
      <point x="591" y="666"/>
      <point x="444" y="810"/>
      <point x="444" y="956" type="curve" smooth="yes"/>
      <point x="444" y="1129"/>
      <point x="541" y="1271"/>
      <point x="755" y="1271" type="curve" smooth="yes"/>
      <point x="875" y="1271"/>
      <point x="930" y="1233"/>
      <point x="930" y="1204" type="curve"/>
      <point x="911" y="1207"/>
      <point x="891" y="1211"/>
      <point x="864" y="1211" type="curve" smooth="yes"/>
      <point x="763" y="1211"/>
      <point x="687" y="1170"/>
      <point x="687" y="1095" type="curve" smooth="yes"/>
      <point x="687" y="1009"/>
      <point x="801" y="956"/>
      <point x="909" y="956" type="curve" smooth="yes"/>
      <point x="961" y="956"/>
      <point x="1032" y="966"/>
      <point x="1088" y="998" type="curve" smooth="yes"/>
      <point x="1161" y="1040"/>
      <point x="1212" y="1104"/>
      <point x="1212" y="1196" type="curve" smooth="yes"/>
      <point x="1212" y="1312"/>
      <point x="1085" y="1440"/>
      <point x="755" y="1440" type="curve" smooth="yes"/>
      <point x="376" y="1440"/>
      <point x="162" y="1260"/>
      <point x="162" y="956" type="curve" smooth="yes"/>
      <point x="162" y="664"/>
      <point x="475" y="477"/>
      <point x="727" y="457" type="curve"/>
    </contour>
    <contour>
      <point x="1009" y="606" type="line"/>
      <point x="1009" y="656" type="line" smooth="yes"/>
      <point x="1009" y="685"/>
      <point x="1024" y="720"/>
      <point x="1054" y="720" type="curve" smooth="yes"/>
      <point x="1082" y="720"/>
      <point x="1102" y="699"/>
      <point x="1102" y="671" type="curve" smooth="yes"/>
      <point x="1102" y="633"/>
      <point x="1066" y="606"/>
      <point x="1026" y="606" type="curve" smooth="yes"/>
    </contour>
    <contour>
      <point x="1762" y="681" type="line"/>
      <point x="1762" y="910" type="line" smooth="yes"/>
      <point x="1762" y="975"/>
      <point x="1541" y="1084"/>
      <point x="1421" y="1124" type="curve" smooth="yes"/>
      <point x="1419" y="1125"/>
      <point x="1416" y="1127"/>
      <point x="1418" y="1128" type="curve" smooth="yes"/>
      <point x="1477" y="1167"/>
      <point x="1702" y="1192"/>
      <point x="1828" y="1192" type="curve" smooth="yes"/>
      <point x="1897" y="1192"/>
      <point x="2102" y="1085"/>
      <point x="2173" y="1039" type="curve" smooth="yes"/>
      <point x="2190" y="1028"/>
      <point x="2212" y="1009"/>
      <point x="2212" y="984" type="curve" smooth="yes"/>
      <point x="2212" y="0" type="line"/>
      <point x="2512" y="0" type="line"/>
      <point x="2512" y="1043" type="line" smooth="yes"/>
      <point x="2512" y="1104"/>
      <point x="2480" y="1149"/>
      <point x="2415" y="1192" type="curve" smooth="yes"/>
      <point x="2357" y="1230"/>
      <point x="1956" y="1440"/>
      <point x="1884" y="1440" type="curve" smooth="yes"/>
      <point x="1675" y="1440"/>
      <point x="1528" y="1377"/>
      <point x="1416" y="1282" type="curve" smooth="yes"/>
      <point x="1341" y="1218"/>
      <point x="1298" y="1145"/>
      <point x="1278" y="1061" type="curve"/>
      <point x="1278" y="1055"/>
      <point x="1280" y="1050"/>
      <point x="1285" y="1049" type="curve" smooth="yes"/>
      <point x="1390" y="1037"/>
      <point x="1462" y="963"/>
      <point x="1462" y="919" type="curve" smooth="yes"/>
      <point x="1462" y="681" type="line"/>
    </contour>
    <contour>
      <point x="2242" y="1792" type="curve"/>
      <point x="2242" y="1410" type="line" smooth="yes"/>
      <point x="2242" y="1352"/>
      <point x="2218" y="1307"/>
      <point x="2185" y="1261" type="curve"/>
      <point x="2408" y="1170" type="line"/>
      <point x="2471" y="1257"/>
      <point x="2512" y="1323"/>
      <point x="2512" y="1410" type="curve" smooth="yes"/>
      <point x="2512" y="1788" type="line" smooth="yes"/>
      <point x="2512" y="1858"/>
      <point x="2342" y="1922"/>
      <point x="2259" y="1922" type="curve" smooth="yes"/>
      <point x="2188" y="1922"/>
      <point x="2158" y="1908"/>
      <point x="2131" y="1893" type="curve"/>
      <point x="2206" y="1893"/>
      <point x="2242" y="1825"/>
    </contour>
  </outline>
</glyph>
<glyph name="uni17BF.rightpart2" format="2">
  <advance width="750"/>
  <anchor x="562" y="-1125" name="L"/>
  <anchor x="562" y="2377" name="U"/>
  <outline>
    <contour>
      <point x="262" y="848" type="line"/>
      <point x="262" y="-919" type="line" smooth="yes"/>
      <point x="262" y="-964"/>
      <point x="97" y="-994"/>
      <point x="37" y="-994" type="curve" smooth="yes"/>
      <point x="-23" y="-994"/>
      <point x="-188" y="-964"/>
      <point x="-188" y="-919" type="curve" smooth="yes"/>
      <point x="-188" y="-848" type="line"/>
      <point x="-488" y="-848" type="line"/>
      <point x="-488" y="-938" type="line" smooth="yes"/>
      <point x="-488" y="-1031"/>
      <point x="-169" y="-1125"/>
      <point x="37" y="-1125" type="curve" smooth="yes"/>
      <point x="244" y="-1125"/>
      <point x="562" y="-1031"/>
      <point x="562" y="-938" type="curve" smooth="yes"/>
      <point x="562" y="835" type="line"/>
    </contour>
    <contour>
      <point x="-201" y="1862" type="curve" smooth="yes"/>
      <point x="-66" y="1862"/>
      <point x="54" y="1836"/>
      <point x="156" y="1812" type="curve" smooth="yes"/>
      <point x="227" y="1795"/>
      <point x="291" y="1780"/>
      <point x="354" y="1780" type="curve" smooth="yes"/>
      <point x="386" y="1780"/>
      <point x="411" y="1796"/>
      <point x="430" y="1814" type="curve" smooth="yes"/>
      <point x="516" y="1900"/>
      <point x="542" y="2083"/>
      <point x="542" y="2164" type="curve" smooth="yes"/>
      <point x="542" y="2212"/>
      <point x="537" y="2319"/>
      <point x="471" y="2381" type="curve" smooth="yes"/>
      <point x="430" y="2420"/>
      <point x="381" y="2424"/>
      <point x="351" y="2424" type="curve" smooth="yes"/>
      <point x="309" y="2424"/>
      <point x="249" y="2395"/>
      <point x="249" y="2339" type="curve" smooth="yes"/>
      <point x="249" y="2312"/>
      <point x="254" y="2292"/>
      <point x="268" y="2275" type="curve" smooth="yes"/>
      <point x="303" y="2235"/>
      <point x="323" y="2177"/>
      <point x="323" y="2118" type="curve" smooth="yes"/>
      <point x="323" y="2100"/>
      <point x="321" y="2081"/>
      <point x="317" y="2063" type="curve"/>
      <point x="277" y="2098"/>
      <point x="232" y="2130"/>
      <point x="185" y="2157" type="curve"/>
      <point x="196" y="2203"/>
      <point x="199" y="2277"/>
      <point x="199" y="2309" type="curve" smooth="yes"/>
      <point x="199" y="2357"/>
      <point x="196" y="2417"/>
      <point x="128" y="2466" type="curve" smooth="yes"/>
      <point x="87" y="2496"/>
      <point x="38" y="2504"/>
      <point x="8" y="2504" type="curve" smooth="yes"/>
      <point x="-33" y="2504"/>
      <point x="-93" y="2485"/>
      <point x="-93" y="2429" type="curve" smooth="yes"/>
      <point x="-93" y="2402"/>
      <point x="-86" y="2384"/>
      <point x="-74" y="2365" type="curve"/>
      <point x="-45" y="2331"/>
      <point x="-33" y="2274"/>
      <point x="-28" y="2247" type="curve"/>
      <point x="-77" y="2260"/>
      <point x="-126" y="2267"/>
      <point x="-171" y="2267" type="curve" smooth="yes"/>
      <point x="-384" y="2267"/>
      <point x="-598" y="2140"/>
      <point x="-598" y="2001" type="curve" smooth="yes"/>
      <point x="-598" y="1911"/>
      <point x="-519" y="1851"/>
      <point x="-418" y="1851" type="curve" smooth="yes"/>
      <point x="-377" y="1851"/>
      <point x="-332" y="1855"/>
      <point x="-287" y="1859" type="curve" smooth="yes"/>
      <point x="-253" y="1862"/>
      <point x="-219" y="1862"/>
    </contour>
    <contour>
      <point x="-182" y="2031" type="curve" smooth="yes"/>
      <point x="-242" y="2031"/>
      <point x="-264" y="2020"/>
      <point x="-306" y="2020" type="curve" smooth="yes"/>
      <point x="-321" y="2020"/>
      <point x="-336" y="2031"/>
      <point x="-336" y="2046" type="curve" smooth="yes"/>
      <point x="-336" y="2084"/>
      <point x="-253" y="2106"/>
      <point x="-159" y="2106" type="curve" smooth="yes"/>
      <point x="-47" y="2106"/>
      <point x="51" y="2061"/>
      <point x="133" y="1990" type="curve"/>
      <point x="51" y="2012"/>
      <point x="-51" y="2031"/>
    </contour>
    <contour>
      <point x="562" y="515" type="line"/>
      <point x="562" y="910" type="line" smooth="yes"/>
      <point x="562" y="975"/>
      <point x="341" y="1084"/>
      <point x="221" y="1124" type="curve" smooth="yes"/>
      <point x="219" y="1125"/>
      <point x="218" y="1126"/>
      <point x="218" y="1128" type="curve"/>
      <point x="221" y="1143"/>
      <point x="228" y="1165"/>
      <point x="246" y="1177" type="curve" smooth="yes"/>
      <point x="254" y="1183"/>
      <point x="264" y="1186"/>
      <point x="274" y="1186" type="curve" smooth="yes"/>
      <point x="333" y="1186"/>
      <point x="407" y="1093"/>
      <point x="502" y="1093" type="curve" smooth="yes"/>
      <point x="619" y="1093"/>
      <point x="731" y="1215"/>
      <point x="731" y="1380" type="curve" smooth="yes"/>
      <point x="731" y="1732"/>
      <point x="518" y="1777"/>
      <point x="421" y="1777" type="curve" smooth="yes"/>
      <point x="346" y="1777"/>
      <point x="290" y="1749"/>
      <point x="290" y="1691" type="curve" smooth="yes"/>
      <point x="290" y="1631"/>
      <point x="337" y="1589"/>
      <point x="427" y="1560" type="curve" smooth="yes"/>
      <point x="526" y="1529"/>
      <point x="610" y="1494"/>
      <point x="610" y="1330" type="curve" smooth="yes"/>
      <point x="610" y="1313"/>
      <point x="604" y="1303"/>
      <point x="595" y="1303" type="curve" smooth="yes"/>
      <point x="540" y="1303"/>
      <point x="362" y="1440"/>
      <point x="290" y="1440" type="curve" smooth="yes"/>
      <point x="206" y="1440"/>
      <point x="103" y="1165"/>
      <point x="78" y="1061" type="curve"/>
      <point x="78" y="1055"/>
      <point x="80" y="1050"/>
      <point x="85" y="1049" type="curve" smooth="yes"/>
      <point x="190" y="1037"/>
      <point x="262" y="963"/>
      <point x="262" y="919" type="curve" smooth="yes"/>
      <point x="262" y="519" type="line"/>
    </contour>
  </outline>
</glyph>
<glyph name="uni17C5.rightpart" format="2">
  <advance width="750"/>
  <anchor x="562" y="0" name="L"/>
  <anchor x="562" y="1860" name="U"/>
  <outline>
    <contour>
      <point x="292" y="1792" type="curve"/>
      <point x="292" y="1410" type="line" smooth="yes"/>
      <point x="292" y="1352"/>
      <point x="268" y="1307"/>
      <point x="235" y="1261" type="curve"/>
      <point x="458" y="1170" type="line"/>
      <point x="521" y="1257"/>
      <point x="562" y="1323"/>
      <point x="562" y="1410" type="curve" smooth="yes"/>
      <point x="562" y="1788" type="line" smooth="yes"/>
      <point x="562" y="1858"/>
      <point x="392" y="1922"/>
      <point x="309" y="1922" type="curve" smooth="yes"/>
      <point x="238" y="1922"/>
      <point x="208" y="1908"/>
      <point x="181" y="1893" type="curve"/>
      <point x="256" y="1893"/>
      <point x="292" y="1825"/>
    </contour>
    <contour>
      <point x="-168" y="1139" type="line"/>
      <point x="-127" y="1167"/>
      <point x="-59" y="1192"/>
      <point x="-12" y="1192" type="curve" smooth="yes"/>
      <point x="37" y="1192"/>
      <point x="152" y="1123"/>
      <point x="223" y="1072" type="curve" smooth="yes"/>
      <point x="240" y="1060"/>
      <point x="262" y="1039"/>
      <point x="262" y="1014" type="curve" smooth="yes"/>
      <point x="262" y="0" type="line"/>
      <point x="562" y="0" type="line"/>
      <point x="562" y="1063" type="line" smooth="yes"/>
      <point x="562" y="1124"/>
      <point x="527" y="1166"/>
      <point x="465" y="1212" type="curve" smooth="yes"/>
      <point x="407" y="1255"/>
      <point x="116" y="1440"/>
      <point x="44" y="1440" type="curve" smooth="yes"/>
      <point x="-63" y="1440"/>
      <point x="-193" y="1351"/>
      <point x="-273" y="1293" type="curve"/>
    </contour>
  </outline>
</glyph>
<glyph name="uni17C6.ms.psom" format="2">
  <advance width="3000"/>
  <anchor x="1190" y="0" name="L"/>
  <anchor x="1190" y="1652" name="U"/>
  <outline>
    <contour>
      <point x="1762" y="826" type="line"/>
      <point x="1762" y="367" type="line"/>
      <point x="1734" y="376"/>
      <point x="1709" y="382"/>
      <point x="1691" y="382" type="curve" smooth="yes"/>
      <point x="1654" y="382"/>
      <point x="1616" y="352"/>
      <point x="1616" y="315" type="curve" smooth="yes"/>
      <point x="1616" y="262"/>
      <point x="1639" y="236"/>
      <point x="1665" y="217" type="curve" smooth="yes"/>
      <point x="1690" y="200"/>
      <point x="1724" y="183"/>
      <point x="1762" y="168" type="curve"/>
      <point x="1762" y="-394" type="line" smooth="yes"/>
      <point x="1762" y="-439"/>
      <point x="1597" y="-469"/>
      <point x="1537" y="-469" type="curve" smooth="yes"/>
      <point x="1477" y="-469"/>
      <point x="1312" y="-439"/>
      <point x="1312" y="-394" type="curve" smooth="yes"/>
      <point x="1312" y="-236" type="line"/>
      <point x="1301" y="-169"/>
      <point x="1166" y="-150"/>
      <point x="1072" y="-150" type="curve"/>
      <point x="975" y="-169"/>
      <point x="919" y="-191"/>
      <point x="919" y="-266" type="curve" smooth="yes"/>
      <point x="919" y="-304"/>
      <point x="964" y="-334"/>
      <point x="1012" y="-353" type="curve"/>
      <point x="1012" y="-413" type="line" smooth="yes"/>
      <point x="1012" y="-506"/>
      <point x="1331" y="-600"/>
      <point x="1537" y="-600" type="curve" smooth="yes"/>
      <point x="1744" y="-600"/>
      <point x="2062" y="-506"/>
      <point x="2062" y="-413" type="curve" smooth="yes"/>
      <point x="2062" y="97" type="line"/>
      <point x="2074" y="97" type="line" smooth="yes"/>
      <point x="2164" y="97"/>
      <point x="2227" y="180"/>
      <point x="2250" y="236" type="curve"/>
      <point x="2235" y="229"/>
      <point x="2186" y="225"/>
      <point x="2175" y="225" type="curve" smooth="yes"/>
      <point x="2145" y="225"/>
      <point x="2106" y="230"/>
      <point x="2062" y="242" type="curve"/>
      <point x="2062" y="830" type="line"/>
    </contour>
    <contour>
      <point x="1237" y="2491" type="curve" smooth="yes"/>
      <point x="1237" y="2360"/>
      <point x="1354" y="2266"/>
      <point x="1537" y="2266" type="curve" smooth="yes"/>
      <point x="1721" y="2266"/>
      <point x="1837" y="2360"/>
      <point x="1837" y="2491" type="curve" smooth="yes"/>
      <point x="1837" y="2622"/>
      <point x="1721" y="2716"/>
      <point x="1537" y="2716" type="curve" smooth="yes"/>
      <point x="1354" y="2716"/>
      <point x="1237" y="2622"/>
    </contour>
    <contour>
      <point x="1481" y="2491" type="curve" smooth="yes"/>
      <point x="1481" y="2536"/>
      <point x="1507" y="2566"/>
      <point x="1537" y="2566" type="curve" smooth="yes"/>
      <point x="1567" y="2566"/>
      <point x="1594" y="2536"/>
      <point x="1594" y="2491" type="curve" smooth="yes"/>
      <point x="1594" y="2446"/>
      <point x="1567" y="2416"/>
      <point x="1537" y="2416" type="curve" smooth="yes"/>
      <point x="1507" y="2416"/>
      <point x="1481" y="2446"/>
    </contour>
    <contour>
      <point x="1012" y="474" type="line"/>
      <point x="1012" y="274" type="line" smooth="yes"/>
      <point x="1012" y="232"/>
      <point x="1007" y="199"/>
      <point x="997" y="199" type="curve" smooth="yes"/>
      <point x="990" y="199"/>
      <point x="959" y="221"/>
      <point x="914" y="259" type="curve" smooth="yes"/>
      <point x="871" y="295"/>
      <point x="825" y="319"/>
      <point x="787" y="319" type="curve" smooth="yes"/>
      <point x="749" y="319"/>
      <point x="700" y="294"/>
      <point x="659" y="259" type="curve" smooth="yes"/>
      <point x="614" y="221"/>
      <point x="584" y="199"/>
      <point x="577" y="199" type="curve" smooth="yes"/>
      <point x="567" y="199"/>
      <point x="562" y="232"/>
      <point x="562" y="274" type="curve" smooth="yes"/>
      <point x="562" y="950" type="line"/>
      <point x="262" y="897" type="line"/>
      <point x="262" y="82" type="line" smooth="yes"/>
      <point x="262" y="41"/>
      <point x="322" y="0"/>
      <point x="382" y="0" type="curve" smooth="yes"/>
      <point x="506" y="0" type="line" smooth="yes"/>
      <point x="554" y="0"/>
      <point x="629" y="46"/>
      <point x="671" y="82" type="curve" smooth="yes"/>
      <point x="710" y="116"/>
      <point x="767" y="159"/>
      <point x="787" y="159" type="curve" smooth="yes"/>
      <point x="807" y="159"/>
      <point x="864" y="116"/>
      <point x="903" y="82" type="curve" smooth="yes"/>
      <point x="945" y="46"/>
      <point x="1019" y="0"/>
      <point x="1068" y="0" type="curve" smooth="yes"/>
      <point x="1192" y="0" type="line" smooth="yes"/>
      <point x="1252" y="0"/>
      <point x="1312" y="41"/>
      <point x="1312" y="82" type="curve" smooth="yes"/>
      <point x="1312" y="495" type="line"/>
    </contour>
    <contour>
      <point x="975" y="1256" type="curve"/>
      <point x="896" y="1281"/>
      <point x="527" y="1440"/>
      <point x="463" y="1440" type="curve" smooth="yes"/>
      <point x="299" y="1440"/>
      <point x="177" y="1235"/>
      <point x="104" y="1064" type="curve" smooth="yes"/>
      <point x="101" y="1057"/>
      <point x="100" y="1035"/>
      <point x="100" y="1029" type="curve" smooth="yes"/>
      <point x="100" y="958"/>
      <point x="189" y="902"/>
      <point x="262" y="890" type="curve"/>
      <point x="562" y="950" type="line"/>
      <point x="409" y="966"/>
      <point x="285" y="1027"/>
      <point x="285" y="1084" type="curve" smooth="yes"/>
      <point x="285" y="1105"/>
      <point x="294" y="1129"/>
      <point x="313" y="1153" type="curve" smooth="yes"/>
      <point x="338" y="1185"/>
      <point x="362" y="1206"/>
      <point x="397" y="1206" type="curve" smooth="yes"/>
      <point x="466" y="1206"/>
      <point x="839" y="1024"/>
      <point x="924" y="1024" type="curve" smooth="yes"/>
      <point x="1127" y="1024"/>
      <point x="1312" y="1207"/>
      <point x="1312" y="1372" type="curve" smooth="yes"/>
      <point x="1312" y="1462"/>
      <point x="1297" y="1515"/>
      <point x="1226" y="1601" type="curve" smooth="yes"/>
      <point x="1159" y="1684"/>
      <point x="1057" y="1740"/>
      <point x="934" y="1740" type="curve" smooth="yes"/>
      <point x="810" y="1740"/>
      <point x="784" y="1680"/>
      <point x="784" y="1627" type="curve" smooth="yes"/>
      <point x="784" y="1575"/>
      <point x="847" y="1519"/>
      <point x="960" y="1501" type="curve" smooth="yes"/>
      <point x="1120" y="1475"/>
      <point x="1167" y="1444"/>
      <point x="1167" y="1365" type="curve" smooth="yes"/>
      <point x="1167" y="1290"/>
      <point x="1050" y="1256"/>
    </contour>
    <contour>
      <point x="1312" y="294" type="line"/>
      <point x="1312" y="782" type="line"/>
      <point x="1282" y="858"/>
      <point x="1174" y="890"/>
      <point x="1059" y="890" type="curve"/>
      <point x="893" y="859"/>
      <point x="785" y="729"/>
      <point x="785" y="600" type="curve" smooth="yes"/>
      <point x="785" y="476"/>
      <point x="882" y="358"/>
      <point x="1012" y="335" type="curve"/>
      <point x="1012" y="288" type="line"/>
    </contour>
    <contour>
      <point x="907" y="600" type="curve" smooth="yes"/>
      <point x="907" y="671"/>
      <point x="961" y="711"/>
      <point x="1012" y="733" type="curve"/>
      <point x="1012" y="432" type="line"/>
      <point x="946" y="451"/>
      <point x="907" y="527"/>
    </contour>
    <contour>
      <point x="2062" y="511" type="line"/>
      <point x="2062" y="910" type="line" smooth="yes"/>
      <point x="2062" y="975"/>
      <point x="1841" y="1084"/>
      <point x="1721" y="1124" type="curve" smooth="yes"/>
      <point x="1719" y="1125"/>
      <point x="1716" y="1127"/>
      <point x="1718" y="1128" type="curve" smooth="yes"/>
      <point x="1777" y="1167"/>
      <point x="2002" y="1192"/>
      <point x="2128" y="1192" type="curve" smooth="yes"/>
      <point x="2197" y="1192"/>
      <point x="2402" y="1085"/>
      <point x="2473" y="1039" type="curve" smooth="yes"/>
      <point x="2490" y="1028"/>
      <point x="2512" y="1009"/>
      <point x="2512" y="984" type="curve" smooth="yes"/>
      <point x="2512" y="0" type="line"/>
      <point x="2812" y="0" type="line"/>
      <point x="2812" y="1043" type="line" smooth="yes"/>
      <point x="2812" y="1104"/>
      <point x="2780" y="1149"/>
      <point x="2715" y="1192" type="curve" smooth="yes"/>
      <point x="2657" y="1230"/>
      <point x="2256" y="1440"/>
      <point x="2184" y="1440" type="curve" smooth="yes"/>
      <point x="1975" y="1440"/>
      <point x="1828" y="1377"/>
      <point x="1716" y="1282" type="curve" smooth="yes"/>
      <point x="1641" y="1218"/>
      <point x="1598" y="1145"/>
      <point x="1578" y="1061" type="curve"/>
      <point x="1578" y="1055"/>
      <point x="1580" y="1050"/>
      <point x="1585" y="1049" type="curve" smooth="yes"/>
      <point x="1690" y="1037"/>
      <point x="1762" y="963"/>
      <point x="1762" y="919" type="curve" smooth="yes"/>
      <point x="1762" y="511" type="line"/>
    </contour>
    <contour>
      <point x="1524" y="1834" type="curve" smooth="yes"/>
      <point x="1561" y="1834"/>
      <point x="1592" y="1888"/>
      <point x="1611" y="1912" type="curve" smooth="yes"/>
      <point x="1635" y="1941"/>
      <point x="1664" y="1976"/>
      <point x="1695" y="1976" type="curve" smooth="yes"/>
      <point x="1764" y="1976"/>
      <point x="1937" y="1834"/>
      <point x="2022" y="1834" type="curve" smooth="yes"/>
      <point x="2103" y="1834"/>
      <point x="2172" y="1969"/>
      <point x="2203" y="2055" type="curve"/>
      <point x="2180" y="2045"/>
      <point x="2156" y="2043"/>
      <point x="2133" y="2043" type="curve" smooth="yes"/>
      <point x="2068" y="2043"/>
      <point x="1823" y="2210"/>
      <point x="1751" y="2210" type="curve" smooth="yes"/>
      <point x="1727" y="2210"/>
      <point x="1690" y="2189"/>
      <point x="1656" y="2157" type="curve" smooth="yes"/>
      <point x="1629" y="2131"/>
      <point x="1599" y="2101"/>
      <point x="1571" y="2068" type="curve"/>
      <point x="1492" y="2093"/>
      <point x="1297" y="2210"/>
      <point x="1233" y="2210" type="curve" smooth="yes"/>
      <point x="1069" y="2210"/>
      <point x="930" y="2055"/>
      <point x="874" y="1924" type="curve" smooth="yes"/>
      <point x="871" y="1917"/>
      <point x="870" y="1895"/>
      <point x="870" y="1889" type="curve" smooth="yes"/>
      <point x="870" y="1818"/>
      <point x="948" y="1762"/>
      <point x="1021" y="1750" type="curve"/>
      <point x="1202" y="1854" type="line"/>
      <point x="1119" y="1870"/>
      <point x="1055" y="1897"/>
      <point x="1055" y="1934" type="curve" smooth="yes"/>
      <point x="1055" y="1959"/>
      <point x="1116" y="1976"/>
      <point x="1167" y="1976" type="curve" smooth="yes"/>
      <point x="1236" y="1976"/>
      <point x="1439" y="1834"/>
    </contour>
  </outline>
</glyph>
<glyph name="uni17D2178317B6" format="2">
  <advance width="1500"/>
  <anchor x="562" y="-713" name="L"/>
  <anchor x="562" y="1440" name="U"/>
  <outline>
    <contour>
      <point x="262" y="837" type="line"/>
      <point x="262" y="-506" type="line" smooth="yes"/>
      <point x="262" y="-551"/>
      <point x="191" y="-582"/>
      <point x="131" y="-582" type="curve" smooth="yes"/>
      <point x="71" y="-582"/>
      <point x="0" y="-566"/>
      <point x="0" y="-506" type="curve" smooth="yes"/>
      <point x="0" y="-465" type="line" smooth="yes"/>
      <point x="0" y="-394"/>
      <point x="-229" y="-375"/>
      <point x="-229" y="-319" type="curve" smooth="yes"/>
      <point x="-229" y="-297"/>
      <point x="-218" y="-289"/>
      <point x="-188" y="-289" type="curve" smooth="yes"/>
      <point x="-146" y="-289"/>
      <point x="-124" y="-360"/>
      <point x="-71" y="-360" type="curve" smooth="yes"/>
      <point x="15" y="-360"/>
      <point x="64" y="-315"/>
      <point x="71" y="-180" type="curve"/>
      <point x="49" y="-207"/>
      <point x="-4" y="-214"/>
      <point x="-38" y="-214" type="curve" smooth="yes"/>
      <point x="-94" y="-214"/>
      <point x="-116" y="-150"/>
      <point x="-195" y="-150" type="curve" smooth="yes"/>
      <point x="-289" y="-150"/>
      <point x="-353" y="-225"/>
      <point x="-353" y="-312" type="curve" smooth="yes"/>
      <point x="-353" y="-387"/>
      <point x="-282" y="-390"/>
      <point x="-282" y="-439" type="curve" smooth="yes"/>
      <point x="-282" y="-506" type="line" smooth="yes"/>
      <point x="-282" y="-551"/>
      <point x="-353" y="-582"/>
      <point x="-413" y="-582" type="curve" smooth="yes"/>
      <point x="-473" y="-582"/>
      <point x="-544" y="-551"/>
      <point x="-544" y="-506" type="curve" smooth="yes"/>
      <point x="-544" y="-233" type="line"/>
      <point x="-555" y="-169"/>
      <point x="-675" y="-150"/>
      <point x="-765" y="-150" type="curve"/>
      <point x="-878" y="-173"/>
      <point x="-954" y="-203"/>
      <point x="-954" y="-274" type="curve" smooth="yes"/>
      <point x="-954" y="-315"/>
      <point x="-909" y="-371"/>
      <point x="-826" y="-390" type="curve"/>
      <point x="-826" y="-533" type="line" smooth="yes"/>
      <point x="-826" y="-638"/>
      <point x="-623" y="-713"/>
      <point x="-413" y="-713" type="curve" smooth="yes"/>
      <point x="-304" y="-713"/>
      <point x="-214" y="-686"/>
      <point x="-150" y="-653" type="curve"/>
      <point x="-60" y="-686"/>
      <point x="22" y="-713"/>
      <point x="131" y="-713" type="curve" smooth="yes"/>
      <point x="337" y="-713"/>
      <point x="562" y="-626"/>
      <point x="562" y="-533" type="curve" smooth="yes"/>
      <point x="562" y="833" type="line"/>
    </contour>
    <contour>
      <point x="562" y="681" type="line"/>
      <point x="562" y="910" type="line" smooth="yes"/>
      <point x="562" y="975"/>
      <point x="341" y="1084"/>
      <point x="221" y="1124" type="curve" smooth="yes"/>
      <point x="219" y="1125"/>
      <point x="216" y="1127"/>
      <point x="218" y="1128" type="curve" smooth="yes"/>
      <point x="277" y="1167"/>
      <point x="502" y="1192"/>
      <point x="628" y="1192" type="curve" smooth="yes"/>
      <point x="697" y="1192"/>
      <point x="902" y="1085"/>
      <point x="973" y="1039" type="curve" smooth="yes"/>
      <point x="990" y="1028"/>
      <point x="1012" y="1009"/>
      <point x="1012" y="984" type="curve" smooth="yes"/>
      <point x="1012" y="0" type="line"/>
      <point x="1312" y="0" type="line"/>
      <point x="1312" y="1043" type="line" smooth="yes"/>
      <point x="1312" y="1104"/>
      <point x="1280" y="1149"/>
      <point x="1215" y="1192" type="curve" smooth="yes"/>
      <point x="1157" y="1230"/>
      <point x="756" y="1440"/>
      <point x="684" y="1440" type="curve" smooth="yes"/>
      <point x="475" y="1440"/>
      <point x="328" y="1377"/>
      <point x="216" y="1282" type="curve" smooth="yes"/>
      <point x="141" y="1218"/>
      <point x="98" y="1145"/>
      <point x="78" y="1061" type="curve"/>
      <point x="78" y="1055"/>
      <point x="80" y="1050"/>
      <point x="85" y="1049" type="curve" smooth="yes"/>
      <point x="190" y="1037"/>
      <point x="262" y="963"/>
      <point x="262" y="919" type="curve" smooth="yes"/>
      <point x="262" y="681" type="line"/>
    </contour>
  </outline>
</glyph>
<glyph name="uni17D2178D17C5.rightlow" format="2">
  <advance width="1500"/>
  <anchor x="562" y="-1238" name="L"/>
  <anchor x="562" y="1440" name="U"/>
  <outline>
    <contour>
      <point x="262" y="852" type="line"/>
      <point x="262" y="-1016" type="line" smooth="yes"/>
      <point x="262" y="-1065"/>
      <point x="236" y="-1107"/>
      <point x="187" y="-1107" type="curve" smooth="yes"/>
      <point x="94" y="-1107"/>
      <point x="49" y="-1020"/>
      <point x="-38" y="-998" type="curve"/>
      <point x="-38" y="-893"/>
      <point x="-174" y="-788"/>
      <point x="-305" y="-788" type="curve" smooth="yes"/>
      <point x="-357" y="-788"/>
      <point x="-444" y="-832"/>
      <point x="-489" y="-870" type="curve"/>
      <point x="-534" y="-832"/>
      <point x="-624" y="-788"/>
      <point x="-676" y="-788" type="curve" smooth="yes"/>
      <point x="-807" y="-788"/>
      <point x="-939" y="-874"/>
      <point x="-939" y="-979" type="curve" smooth="yes"/>
      <point x="-939" y="-1155" type="line"/>
      <point x="-927" y="-1219"/>
      <point x="-807" y="-1238"/>
      <point x="-717" y="-1238" type="curve"/>
      <point x="-605" y="-1230"/>
      <point x="-530" y="-1194"/>
      <point x="-530" y="-1123" type="curve" smooth="yes"/>
      <point x="-530" y="-1082"/>
      <point x="-575" y="-1035"/>
      <point x="-657" y="-1016" type="curve"/>
      <point x="-657" y="-960" type="line"/>
      <point x="-620" y="-986"/>
      <point x="-519" y="-1043"/>
      <point x="-489" y="-1043" type="curve" smooth="yes"/>
      <point x="-459" y="-1043"/>
      <point x="-357" y="-987"/>
      <point x="-320" y="-961" type="curve"/>
      <point x="-320" y="-1016" type="line"/>
      <point x="-402" y="-1035"/>
      <point x="-451" y="-1082"/>
      <point x="-451" y="-1123" type="curve" smooth="yes"/>
      <point x="-451" y="-1194"/>
      <point x="-372" y="-1230"/>
      <point x="-260" y="-1238" type="curve"/>
      <point x="-170" y="-1238"/>
      <point x="-49" y="-1211"/>
      <point x="-38" y="-1148" type="curve"/>
      <point x="-38" y="-1110" type="line"/>
      <point x="26" y="-1125"/>
      <point x="75" y="-1238"/>
      <point x="217" y="-1238" type="curve" smooth="yes"/>
      <point x="424" y="-1238"/>
      <point x="562" y="-1140"/>
      <point x="562" y="-1035" type="curve" smooth="yes"/>
      <point x="562" y="827" type="line"/>
    </contour>
    <contour>
      <point x="562" y="681" type="line"/>
      <point x="562" y="910" type="line" smooth="yes"/>
      <point x="562" y="975"/>
      <point x="341" y="1084"/>
      <point x="221" y="1124" type="curve" smooth="yes"/>
      <point x="219" y="1125"/>
      <point x="216" y="1127"/>
      <point x="218" y="1128" type="curve" smooth="yes"/>
      <point x="277" y="1167"/>
      <point x="502" y="1192"/>
      <point x="628" y="1192" type="curve" smooth="yes"/>
      <point x="697" y="1192"/>
      <point x="902" y="1085"/>
      <point x="973" y="1039" type="curve" smooth="yes"/>
      <point x="990" y="1028"/>
      <point x="1012" y="1009"/>
      <point x="1012" y="984" type="curve" smooth="yes"/>
      <point x="1012" y="0" type="line"/>
      <point x="1312" y="0" type="line"/>
      <point x="1312" y="1043" type="line" smooth="yes"/>
      <point x="1312" y="1104"/>
      <point x="1280" y="1149"/>
      <point x="1215" y="1192" type="curve" smooth="yes"/>
      <point x="1157" y="1230"/>
      <point x="756" y="1440"/>
      <point x="684" y="1440" type="curve" smooth="yes"/>
      <point x="475" y="1440"/>
      <point x="328" y="1377"/>
      <point x="216" y="1282" type="curve" smooth="yes"/>
      <point x="141" y="1218"/>
      <point x="98" y="1145"/>
      <point x="78" y="1061" type="curve"/>
      <point x="78" y="1055"/>
      <point x="80" y="1050"/>
      <point x="85" y="1049" type="curve" smooth="yes"/>
      <point x="190" y="1037"/>
      <point x="262" y="963"/>
      <point x="262" y="919" type="curve" smooth="yes"/>
      <point x="262" y="681" type="line"/>
    </contour>
    <contour>
      <point x="1042" y="1792" type="curve"/>
      <point x="1042" y="1410" type="line" smooth="yes"/>
      <point x="1042" y="1352"/>
      <point x="1018" y="1307"/>
      <point x="985" y="1261" type="curve"/>
      <point x="1208" y="1170" type="line"/>
      <point x="1271" y="1257"/>
      <point x="1312" y="1323"/>
      <point x="1312" y="1410" type="curve" smooth="yes"/>
      <point x="1312" y="1788" type="line" smooth="yes"/>
      <point x="1312" y="1858"/>
      <point x="1142" y="1922"/>
      <point x="1059" y="1922" type="curve" smooth="yes"/>
      <point x="988" y="1922"/>
      <point x="958" y="1908"/>
      <point x="931" y="1893" type="curve"/>
      <point x="1006" y="1893"/>
      <point x="1042" y="1825"/>
    </contour>
  </outline>
</glyph>
<glyph name="uni17D21794" format="2">
  <advance width="750"/>
  <anchor x="562" y="-713" name="L"/>
  <anchor x="562" y="1440" name="U"/>
  <outline>
    <contour>
      <point x="262" y="848" type="line"/>
      <point x="262" y="-522" type="line"/>
      <point x="251" y="-522"/>
      <point x="184" y="-469"/>
      <point x="142" y="-428" type="curve" smooth="yes"/>
      <point x="94" y="-383"/>
      <point x="67" y="-364"/>
      <point x="37" y="-364" type="curve" smooth="yes"/>
      <point x="7" y="-364"/>
      <point x="-34" y="-394"/>
      <point x="-82" y="-440" type="curve" smooth="yes"/>
      <point x="-124" y="-480"/>
      <point x="-176" y="-522"/>
      <point x="-188" y="-522" type="curve"/>
      <point x="-188" y="-390" type="line"/>
      <point x="-131" y="-379"/>
      <point x="-75" y="-334"/>
      <point x="-75" y="-281" type="curve" smooth="yes"/>
      <point x="-75" y="-244"/>
      <point x="-135" y="-173"/>
      <point x="-248" y="-150" type="curve"/>
      <point x="-334" y="-150"/>
      <point x="-458" y="-173"/>
      <point x="-488" y="-255" type="curve"/>
      <point x="-488" y="-630" type="line" smooth="yes"/>
      <point x="-488" y="-668"/>
      <point x="-416" y="-713"/>
      <point x="-345" y="-713" type="curve" smooth="yes"/>
      <point x="-263" y="-713" type="line" smooth="yes"/>
      <point x="-184" y="-713"/>
      <point x="-105" y="-664"/>
      <point x="-61" y="-625" type="curve" smooth="yes"/>
      <point x="-19" y="-589"/>
      <point x="22" y="-555"/>
      <point x="37" y="-555" type="curve" smooth="yes"/>
      <point x="52" y="-555"/>
      <point x="94" y="-589"/>
      <point x="135" y="-626" type="curve" smooth="yes"/>
      <point x="176" y="-664"/>
      <point x="259" y="-713"/>
      <point x="337" y="-713" type="curve" smooth="yes"/>
      <point x="420" y="-713" type="line" smooth="yes"/>
      <point x="491" y="-713"/>
      <point x="562" y="-668"/>
      <point x="562" y="-630" type="curve" smooth="yes"/>
      <point x="562" y="828" type="line"/>
    </contour>
    <contour>
      <point x="562" y="665" type="line"/>
      <point x="562" y="930" type="line" smooth="yes"/>
      <point x="562" y="995"/>
      <point x="341" y="1094"/>
      <point x="221" y="1134" type="curve" smooth="yes"/>
      <point x="219" y="1135"/>
      <point x="218" y="1136"/>
      <point x="218" y="1138" type="curve"/>
      <point x="221" y="1153"/>
      <point x="228" y="1165"/>
      <point x="246" y="1177" type="curve" smooth="yes"/>
      <point x="254" y="1183"/>
      <point x="264" y="1186"/>
      <point x="274" y="1186" type="curve" smooth="yes"/>
      <point x="363" y="1186"/>
      <point x="427" y="1105"/>
      <point x="532" y="1105" type="curve" smooth="yes"/>
      <point x="608" y="1105"/>
      <point x="660" y="1260"/>
      <point x="683" y="1346" type="curve"/>
      <point x="660" y="1336"/>
      <point x="636" y="1334"/>
      <point x="613" y="1334" type="curve" smooth="yes"/>
      <point x="558" y="1334"/>
      <point x="362" y="1440"/>
      <point x="290" y="1440" type="curve" smooth="yes"/>
      <point x="206" y="1440"/>
      <point x="103" y="1165"/>
      <point x="78" y="1061" type="curve"/>
      <point x="78" y="1055"/>
      <point x="80" y="1050"/>
      <point x="85" y="1049" type="curve" smooth="yes"/>
      <point x="190" y="1037"/>
      <point x="262" y="963"/>
      <point x="262" y="919" type="curve" smooth="yes"/>
      <point x="262" y="665" type="line"/>
    </contour>
  </outline>
</glyph>
